<?xml version="1.0" encoding="utf-8" standalone="no"?>
<!DOCTYPE svg PUBLIC "-//W3C//DTD SVG 1.1//EN"
  "http://www.w3.org/Graphics/SVG/1.1/DTD/svg11.dtd">
<svg height="288pt" version="1.1" viewBox="0 0 576 288" width="576pt" xmlns="http://www.w3.org/2000/svg" xmlns:xlink="http://www.w3.org/1999/xlink">
 <metadata>
  <rdf:RDF xmlns:cc="http://creativecommons.org/ns#" xmlns:dc="http://purl.org/dc/elements/1.1/" xmlns:rdf="http://www.w3.org/1999/02/22-rdf-syntax-ns#">
   <cc:Work>
    <dc:type rdf:resource="http://purl.org/dc/dcmitype/StillImage"/>
    <dc:date>2021-11-05T00:35:16.045068</dc:date>
    <dc:format>image/svg+xml</dc:format>
    <dc:creator>
     <cc:Agent>
      <dc:title>Matplotlib v3.4.3, https://matplotlib.org/</dc:title>
     </cc:Agent>
    </dc:creator>
   </cc:Work>
  </rdf:RDF>
 </metadata>
 <defs>
  <style type="text/css">*{stroke-linecap:butt;stroke-linejoin:round;}</style>
 </defs>
 <g id="figure_1">
  <g id="patch_1">
   <path d="M 0 288 
L 576 288 
L 576 0 
L 0 0 
z
" style="fill:#ffffff;"/>
  </g>
  <g id="axes_1">
   <g id="patch_2">
    <path d="M 57.05 243.2 
L 565.2 243.2 
L 565.2 10.8 
L 57.05 10.8 
z
" style="fill:#e5e5e5;"/>
   </g>
   <g id="matplotlib.axis_1">
    <g id="xtick_1">
     <g id="line2d_1">
      <path clip-path="url(#p2424cb2d0d)" d="M 75.48152 243.2 
L 75.48152 10.8 
" style="fill:none;stroke:#ffffff;stroke-linecap:square;stroke-width:0.8;"/>
     </g>
     <g id="line2d_2">
      <defs>
       <path d="M 0 0 
L 0 3.5 
" id="mf0d4e50bc9" style="stroke:#555555;stroke-width:0.8;"/>
      </defs>
      <g>
       <use style="fill:#555555;stroke:#555555;stroke-width:0.8;" x="75.48152" xlink:href="#mf0d4e50bc9" y="243.2"/>
      </g>
     </g>
     <g id="text_1">
      <!-- 0 -->
      <g style="fill:#555555;" transform="translate(72.30027 257.798437)scale(0.1 -0.1)">
       <defs>
        <path d="M 2034 4250 
Q 1547 4250 1301 3770 
Q 1056 3291 1056 2328 
Q 1056 1369 1301 889 
Q 1547 409 2034 409 
Q 2525 409 2770 889 
Q 3016 1369 3016 2328 
Q 3016 3291 2770 3770 
Q 2525 4250 2034 4250 
z
M 2034 4750 
Q 2819 4750 3233 4129 
Q 3647 3509 3647 2328 
Q 3647 1150 3233 529 
Q 2819 -91 2034 -91 
Q 1250 -91 836 529 
Q 422 1150 422 2328 
Q 422 3509 836 4129 
Q 1250 4750 2034 4750 
z
" id="DejaVuSans-30" transform="scale(0.015625)"/>
       </defs>
       <use xlink:href="#DejaVuSans-30"/>
      </g>
     </g>
    </g>
    <g id="xtick_2">
     <g id="line2d_3">
      <path clip-path="url(#p2424cb2d0d)" d="M 168.80567 243.2 
L 168.80567 10.8 
" style="fill:none;stroke:#ffffff;stroke-linecap:square;stroke-width:0.8;"/>
     </g>
     <g id="line2d_4">
      <g>
       <use style="fill:#555555;stroke:#555555;stroke-width:0.8;" x="168.80567" xlink:href="#mf0d4e50bc9" y="243.2"/>
      </g>
     </g>
     <g id="text_2">
      <!-- 20 -->
      <g style="fill:#555555;" transform="translate(162.44317 257.798437)scale(0.1 -0.1)">
       <defs>
        <path d="M 1228 531 
L 3431 531 
L 3431 0 
L 469 0 
L 469 531 
Q 828 903 1448 1529 
Q 2069 2156 2228 2338 
Q 2531 2678 2651 2914 
Q 2772 3150 2772 3378 
Q 2772 3750 2511 3984 
Q 2250 4219 1831 4219 
Q 1534 4219 1204 4116 
Q 875 4013 500 3803 
L 500 4441 
Q 881 4594 1212 4672 
Q 1544 4750 1819 4750 
Q 2544 4750 2975 4387 
Q 3406 4025 3406 3419 
Q 3406 3131 3298 2873 
Q 3191 2616 2906 2266 
Q 2828 2175 2409 1742 
Q 1991 1309 1228 531 
z
" id="DejaVuSans-32" transform="scale(0.015625)"/>
       </defs>
       <use xlink:href="#DejaVuSans-32"/>
       <use x="63.623047" xlink:href="#DejaVuSans-30"/>
      </g>
     </g>
    </g>
    <g id="xtick_3">
     <g id="line2d_5">
      <path clip-path="url(#p2424cb2d0d)" d="M 262.129821 243.2 
L 262.129821 10.8 
" style="fill:none;stroke:#ffffff;stroke-linecap:square;stroke-width:0.8;"/>
     </g>
     <g id="line2d_6">
      <g>
       <use style="fill:#555555;stroke:#555555;stroke-width:0.8;" x="262.129821" xlink:href="#mf0d4e50bc9" y="243.2"/>
      </g>
     </g>
     <g id="text_3">
      <!-- 40 -->
      <g style="fill:#555555;" transform="translate(255.767321 257.798437)scale(0.1 -0.1)">
       <defs>
        <path d="M 2419 4116 
L 825 1625 
L 2419 1625 
L 2419 4116 
z
M 2253 4666 
L 3047 4666 
L 3047 1625 
L 3713 1625 
L 3713 1100 
L 3047 1100 
L 3047 0 
L 2419 0 
L 2419 1100 
L 313 1100 
L 313 1709 
L 2253 4666 
z
" id="DejaVuSans-34" transform="scale(0.015625)"/>
       </defs>
       <use xlink:href="#DejaVuSans-34"/>
       <use x="63.623047" xlink:href="#DejaVuSans-30"/>
      </g>
     </g>
    </g>
    <g id="xtick_4">
     <g id="line2d_7">
      <path clip-path="url(#p2424cb2d0d)" d="M 355.453972 243.2 
L 355.453972 10.8 
" style="fill:none;stroke:#ffffff;stroke-linecap:square;stroke-width:0.8;"/>
     </g>
     <g id="line2d_8">
      <g>
       <use style="fill:#555555;stroke:#555555;stroke-width:0.8;" x="355.453972" xlink:href="#mf0d4e50bc9" y="243.2"/>
      </g>
     </g>
     <g id="text_4">
      <!-- 60 -->
      <g style="fill:#555555;" transform="translate(349.091472 257.798437)scale(0.1 -0.1)">
       <defs>
        <path d="M 2113 2584 
Q 1688 2584 1439 2293 
Q 1191 2003 1191 1497 
Q 1191 994 1439 701 
Q 1688 409 2113 409 
Q 2538 409 2786 701 
Q 3034 994 3034 1497 
Q 3034 2003 2786 2293 
Q 2538 2584 2113 2584 
z
M 3366 4563 
L 3366 3988 
Q 3128 4100 2886 4159 
Q 2644 4219 2406 4219 
Q 1781 4219 1451 3797 
Q 1122 3375 1075 2522 
Q 1259 2794 1537 2939 
Q 1816 3084 2150 3084 
Q 2853 3084 3261 2657 
Q 3669 2231 3669 1497 
Q 3669 778 3244 343 
Q 2819 -91 2113 -91 
Q 1303 -91 875 529 
Q 447 1150 447 2328 
Q 447 3434 972 4092 
Q 1497 4750 2381 4750 
Q 2619 4750 2861 4703 
Q 3103 4656 3366 4563 
z
" id="DejaVuSans-36" transform="scale(0.015625)"/>
       </defs>
       <use xlink:href="#DejaVuSans-36"/>
       <use x="63.623047" xlink:href="#DejaVuSans-30"/>
      </g>
     </g>
    </g>
    <g id="xtick_5">
     <g id="line2d_9">
      <path clip-path="url(#p2424cb2d0d)" d="M 448.778122 243.2 
L 448.778122 10.8 
" style="fill:none;stroke:#ffffff;stroke-linecap:square;stroke-width:0.8;"/>
     </g>
     <g id="line2d_10">
      <g>
       <use style="fill:#555555;stroke:#555555;stroke-width:0.8;" x="448.778122" xlink:href="#mf0d4e50bc9" y="243.2"/>
      </g>
     </g>
     <g id="text_5">
      <!-- 80 -->
      <g style="fill:#555555;" transform="translate(442.415622 257.798437)scale(0.1 -0.1)">
       <defs>
        <path d="M 2034 2216 
Q 1584 2216 1326 1975 
Q 1069 1734 1069 1313 
Q 1069 891 1326 650 
Q 1584 409 2034 409 
Q 2484 409 2743 651 
Q 3003 894 3003 1313 
Q 3003 1734 2745 1975 
Q 2488 2216 2034 2216 
z
M 1403 2484 
Q 997 2584 770 2862 
Q 544 3141 544 3541 
Q 544 4100 942 4425 
Q 1341 4750 2034 4750 
Q 2731 4750 3128 4425 
Q 3525 4100 3525 3541 
Q 3525 3141 3298 2862 
Q 3072 2584 2669 2484 
Q 3125 2378 3379 2068 
Q 3634 1759 3634 1313 
Q 3634 634 3220 271 
Q 2806 -91 2034 -91 
Q 1263 -91 848 271 
Q 434 634 434 1313 
Q 434 1759 690 2068 
Q 947 2378 1403 2484 
z
M 1172 3481 
Q 1172 3119 1398 2916 
Q 1625 2713 2034 2713 
Q 2441 2713 2670 2916 
Q 2900 3119 2900 3481 
Q 2900 3844 2670 4047 
Q 2441 4250 2034 4250 
Q 1625 4250 1398 4047 
Q 1172 3844 1172 3481 
z
" id="DejaVuSans-38" transform="scale(0.015625)"/>
       </defs>
       <use xlink:href="#DejaVuSans-38"/>
       <use x="63.623047" xlink:href="#DejaVuSans-30"/>
      </g>
     </g>
    </g>
    <g id="xtick_6">
     <g id="line2d_11">
      <path clip-path="url(#p2424cb2d0d)" d="M 542.102273 243.2 
L 542.102273 10.8 
" style="fill:none;stroke:#ffffff;stroke-linecap:square;stroke-width:0.8;"/>
     </g>
     <g id="line2d_12">
      <g>
       <use style="fill:#555555;stroke:#555555;stroke-width:0.8;" x="542.102273" xlink:href="#mf0d4e50bc9" y="243.2"/>
      </g>
     </g>
     <g id="text_6">
      <!-- 100 -->
      <g style="fill:#555555;" transform="translate(532.558523 257.798437)scale(0.1 -0.1)">
       <defs>
        <path d="M 794 531 
L 1825 531 
L 1825 4091 
L 703 3866 
L 703 4441 
L 1819 4666 
L 2450 4666 
L 2450 531 
L 3481 531 
L 3481 0 
L 794 0 
L 794 531 
z
" id="DejaVuSans-31" transform="scale(0.015625)"/>
       </defs>
       <use xlink:href="#DejaVuSans-31"/>
       <use x="63.623047" xlink:href="#DejaVuSans-30"/>
       <use x="127.246094" xlink:href="#DejaVuSans-30"/>
      </g>
     </g>
    </g>
    <g id="text_7">
     <!-- Epoch number -->
     <g style="fill:#555555;" transform="translate(267.428125 272.99625)scale(0.12 -0.12)">
      <defs>
       <path d="M 628 4666 
L 3578 4666 
L 3578 4134 
L 1259 4134 
L 1259 2753 
L 3481 2753 
L 3481 2222 
L 1259 2222 
L 1259 531 
L 3634 531 
L 3634 0 
L 628 0 
L 628 4666 
z
" id="DejaVuSans-45" transform="scale(0.015625)"/>
       <path d="M 1159 525 
L 1159 -1331 
L 581 -1331 
L 581 3500 
L 1159 3500 
L 1159 2969 
Q 1341 3281 1617 3432 
Q 1894 3584 2278 3584 
Q 2916 3584 3314 3078 
Q 3713 2572 3713 1747 
Q 3713 922 3314 415 
Q 2916 -91 2278 -91 
Q 1894 -91 1617 61 
Q 1341 213 1159 525 
z
M 3116 1747 
Q 3116 2381 2855 2742 
Q 2594 3103 2138 3103 
Q 1681 3103 1420 2742 
Q 1159 2381 1159 1747 
Q 1159 1113 1420 752 
Q 1681 391 2138 391 
Q 2594 391 2855 752 
Q 3116 1113 3116 1747 
z
" id="DejaVuSans-70" transform="scale(0.015625)"/>
       <path d="M 1959 3097 
Q 1497 3097 1228 2736 
Q 959 2375 959 1747 
Q 959 1119 1226 758 
Q 1494 397 1959 397 
Q 2419 397 2687 759 
Q 2956 1122 2956 1747 
Q 2956 2369 2687 2733 
Q 2419 3097 1959 3097 
z
M 1959 3584 
Q 2709 3584 3137 3096 
Q 3566 2609 3566 1747 
Q 3566 888 3137 398 
Q 2709 -91 1959 -91 
Q 1206 -91 779 398 
Q 353 888 353 1747 
Q 353 2609 779 3096 
Q 1206 3584 1959 3584 
z
" id="DejaVuSans-6f" transform="scale(0.015625)"/>
       <path d="M 3122 3366 
L 3122 2828 
Q 2878 2963 2633 3030 
Q 2388 3097 2138 3097 
Q 1578 3097 1268 2742 
Q 959 2388 959 1747 
Q 959 1106 1268 751 
Q 1578 397 2138 397 
Q 2388 397 2633 464 
Q 2878 531 3122 666 
L 3122 134 
Q 2881 22 2623 -34 
Q 2366 -91 2075 -91 
Q 1284 -91 818 406 
Q 353 903 353 1747 
Q 353 2603 823 3093 
Q 1294 3584 2113 3584 
Q 2378 3584 2631 3529 
Q 2884 3475 3122 3366 
z
" id="DejaVuSans-63" transform="scale(0.015625)"/>
       <path d="M 3513 2113 
L 3513 0 
L 2938 0 
L 2938 2094 
Q 2938 2591 2744 2837 
Q 2550 3084 2163 3084 
Q 1697 3084 1428 2787 
Q 1159 2491 1159 1978 
L 1159 0 
L 581 0 
L 581 4863 
L 1159 4863 
L 1159 2956 
Q 1366 3272 1645 3428 
Q 1925 3584 2291 3584 
Q 2894 3584 3203 3211 
Q 3513 2838 3513 2113 
z
" id="DejaVuSans-68" transform="scale(0.015625)"/>
       <path id="DejaVuSans-20" transform="scale(0.015625)"/>
       <path d="M 3513 2113 
L 3513 0 
L 2938 0 
L 2938 2094 
Q 2938 2591 2744 2837 
Q 2550 3084 2163 3084 
Q 1697 3084 1428 2787 
Q 1159 2491 1159 1978 
L 1159 0 
L 581 0 
L 581 3500 
L 1159 3500 
L 1159 2956 
Q 1366 3272 1645 3428 
Q 1925 3584 2291 3584 
Q 2894 3584 3203 3211 
Q 3513 2838 3513 2113 
z
" id="DejaVuSans-6e" transform="scale(0.015625)"/>
       <path d="M 544 1381 
L 544 3500 
L 1119 3500 
L 1119 1403 
Q 1119 906 1312 657 
Q 1506 409 1894 409 
Q 2359 409 2629 706 
Q 2900 1003 2900 1516 
L 2900 3500 
L 3475 3500 
L 3475 0 
L 2900 0 
L 2900 538 
Q 2691 219 2414 64 
Q 2138 -91 1772 -91 
Q 1169 -91 856 284 
Q 544 659 544 1381 
z
M 1991 3584 
L 1991 3584 
z
" id="DejaVuSans-75" transform="scale(0.015625)"/>
       <path d="M 3328 2828 
Q 3544 3216 3844 3400 
Q 4144 3584 4550 3584 
Q 5097 3584 5394 3201 
Q 5691 2819 5691 2113 
L 5691 0 
L 5113 0 
L 5113 2094 
Q 5113 2597 4934 2840 
Q 4756 3084 4391 3084 
Q 3944 3084 3684 2787 
Q 3425 2491 3425 1978 
L 3425 0 
L 2847 0 
L 2847 2094 
Q 2847 2600 2669 2842 
Q 2491 3084 2119 3084 
Q 1678 3084 1418 2786 
Q 1159 2488 1159 1978 
L 1159 0 
L 581 0 
L 581 3500 
L 1159 3500 
L 1159 2956 
Q 1356 3278 1631 3431 
Q 1906 3584 2284 3584 
Q 2666 3584 2933 3390 
Q 3200 3197 3328 2828 
z
" id="DejaVuSans-6d" transform="scale(0.015625)"/>
       <path d="M 3116 1747 
Q 3116 2381 2855 2742 
Q 2594 3103 2138 3103 
Q 1681 3103 1420 2742 
Q 1159 2381 1159 1747 
Q 1159 1113 1420 752 
Q 1681 391 2138 391 
Q 2594 391 2855 752 
Q 3116 1113 3116 1747 
z
M 1159 2969 
Q 1341 3281 1617 3432 
Q 1894 3584 2278 3584 
Q 2916 3584 3314 3078 
Q 3713 2572 3713 1747 
Q 3713 922 3314 415 
Q 2916 -91 2278 -91 
Q 1894 -91 1617 61 
Q 1341 213 1159 525 
L 1159 0 
L 581 0 
L 581 4863 
L 1159 4863 
L 1159 2969 
z
" id="DejaVuSans-62" transform="scale(0.015625)"/>
       <path d="M 3597 1894 
L 3597 1613 
L 953 1613 
Q 991 1019 1311 708 
Q 1631 397 2203 397 
Q 2534 397 2845 478 
Q 3156 559 3463 722 
L 3463 178 
Q 3153 47 2828 -22 
Q 2503 -91 2169 -91 
Q 1331 -91 842 396 
Q 353 884 353 1716 
Q 353 2575 817 3079 
Q 1281 3584 2069 3584 
Q 2775 3584 3186 3129 
Q 3597 2675 3597 1894 
z
M 3022 2063 
Q 3016 2534 2758 2815 
Q 2500 3097 2075 3097 
Q 1594 3097 1305 2825 
Q 1016 2553 972 2059 
L 3022 2063 
z
" id="DejaVuSans-65" transform="scale(0.015625)"/>
       <path d="M 2631 2963 
Q 2534 3019 2420 3045 
Q 2306 3072 2169 3072 
Q 1681 3072 1420 2755 
Q 1159 2438 1159 1844 
L 1159 0 
L 581 0 
L 581 3500 
L 1159 3500 
L 1159 2956 
Q 1341 3275 1631 3429 
Q 1922 3584 2338 3584 
Q 2397 3584 2469 3576 
Q 2541 3569 2628 3553 
L 2631 2963 
z
" id="DejaVuSans-72" transform="scale(0.015625)"/>
      </defs>
      <use xlink:href="#DejaVuSans-45"/>
      <use x="63.183594" xlink:href="#DejaVuSans-70"/>
      <use x="126.660156" xlink:href="#DejaVuSans-6f"/>
      <use x="187.841797" xlink:href="#DejaVuSans-63"/>
      <use x="242.822266" xlink:href="#DejaVuSans-68"/>
      <use x="306.201172" xlink:href="#DejaVuSans-20"/>
      <use x="337.988281" xlink:href="#DejaVuSans-6e"/>
      <use x="401.367188" xlink:href="#DejaVuSans-75"/>
      <use x="464.746094" xlink:href="#DejaVuSans-6d"/>
      <use x="562.158203" xlink:href="#DejaVuSans-62"/>
      <use x="625.634766" xlink:href="#DejaVuSans-65"/>
      <use x="687.158203" xlink:href="#DejaVuSans-72"/>
     </g>
    </g>
   </g>
   <g id="matplotlib.axis_2">
    <g id="ytick_1">
     <g id="line2d_13">
      <path clip-path="url(#p2424cb2d0d)" d="M 57.05 232.498776 
L 565.2 232.498776 
" style="fill:none;stroke:#ffffff;stroke-linecap:square;stroke-width:0.8;"/>
     </g>
     <g id="line2d_14">
      <defs>
       <path d="M 0 0 
L -3.5 0 
" id="m68e2ad8503" style="stroke:#555555;stroke-width:0.8;"/>
      </defs>
      <g>
       <use style="fill:#555555;stroke:#555555;stroke-width:0.8;" x="57.05" xlink:href="#m68e2ad8503" y="232.498776"/>
      </g>
     </g>
     <g id="text_8">
      <!-- 0.65 -->
      <g style="fill:#555555;" transform="translate(27.784375 236.297995)scale(0.1 -0.1)">
       <defs>
        <path d="M 684 794 
L 1344 794 
L 1344 0 
L 684 0 
L 684 794 
z
" id="DejaVuSans-2e" transform="scale(0.015625)"/>
        <path d="M 691 4666 
L 3169 4666 
L 3169 4134 
L 1269 4134 
L 1269 2991 
Q 1406 3038 1543 3061 
Q 1681 3084 1819 3084 
Q 2600 3084 3056 2656 
Q 3513 2228 3513 1497 
Q 3513 744 3044 326 
Q 2575 -91 1722 -91 
Q 1428 -91 1123 -41 
Q 819 9 494 109 
L 494 744 
Q 775 591 1075 516 
Q 1375 441 1709 441 
Q 2250 441 2565 725 
Q 2881 1009 2881 1497 
Q 2881 1984 2565 2268 
Q 2250 2553 1709 2553 
Q 1456 2553 1204 2497 
Q 953 2441 691 2322 
L 691 4666 
z
" id="DejaVuSans-35" transform="scale(0.015625)"/>
       </defs>
       <use xlink:href="#DejaVuSans-30"/>
       <use x="63.623047" xlink:href="#DejaVuSans-2e"/>
       <use x="95.410156" xlink:href="#DejaVuSans-36"/>
       <use x="159.033203" xlink:href="#DejaVuSans-35"/>
      </g>
     </g>
    </g>
    <g id="ytick_2">
     <g id="line2d_15">
      <path clip-path="url(#p2424cb2d0d)" d="M 57.05 196.267328 
L 565.2 196.267328 
" style="fill:none;stroke:#ffffff;stroke-linecap:square;stroke-width:0.8;"/>
     </g>
     <g id="line2d_16">
      <g>
       <use style="fill:#555555;stroke:#555555;stroke-width:0.8;" x="57.05" xlink:href="#m68e2ad8503" y="196.267328"/>
      </g>
     </g>
     <g id="text_9">
      <!-- 0.70 -->
      <g style="fill:#555555;" transform="translate(27.784375 200.066547)scale(0.1 -0.1)">
       <defs>
        <path d="M 525 4666 
L 3525 4666 
L 3525 4397 
L 1831 0 
L 1172 0 
L 2766 4134 
L 525 4134 
L 525 4666 
z
" id="DejaVuSans-37" transform="scale(0.015625)"/>
       </defs>
       <use xlink:href="#DejaVuSans-30"/>
       <use x="63.623047" xlink:href="#DejaVuSans-2e"/>
       <use x="95.410156" xlink:href="#DejaVuSans-37"/>
       <use x="159.033203" xlink:href="#DejaVuSans-30"/>
      </g>
     </g>
    </g>
    <g id="ytick_3">
     <g id="line2d_17">
      <path clip-path="url(#p2424cb2d0d)" d="M 57.05 160.03588 
L 565.2 160.03588 
" style="fill:none;stroke:#ffffff;stroke-linecap:square;stroke-width:0.8;"/>
     </g>
     <g id="line2d_18">
      <g>
       <use style="fill:#555555;stroke:#555555;stroke-width:0.8;" x="57.05" xlink:href="#m68e2ad8503" y="160.03588"/>
      </g>
     </g>
     <g id="text_10">
      <!-- 0.75 -->
      <g style="fill:#555555;" transform="translate(27.784375 163.835099)scale(0.1 -0.1)">
       <use xlink:href="#DejaVuSans-30"/>
       <use x="63.623047" xlink:href="#DejaVuSans-2e"/>
       <use x="95.410156" xlink:href="#DejaVuSans-37"/>
       <use x="159.033203" xlink:href="#DejaVuSans-35"/>
      </g>
     </g>
    </g>
    <g id="ytick_4">
     <g id="line2d_19">
      <path clip-path="url(#p2424cb2d0d)" d="M 57.05 123.804432 
L 565.2 123.804432 
" style="fill:none;stroke:#ffffff;stroke-linecap:square;stroke-width:0.8;"/>
     </g>
     <g id="line2d_20">
      <g>
       <use style="fill:#555555;stroke:#555555;stroke-width:0.8;" x="57.05" xlink:href="#m68e2ad8503" y="123.804432"/>
      </g>
     </g>
     <g id="text_11">
      <!-- 0.80 -->
      <g style="fill:#555555;" transform="translate(27.784375 127.603651)scale(0.1 -0.1)">
       <use xlink:href="#DejaVuSans-30"/>
       <use x="63.623047" xlink:href="#DejaVuSans-2e"/>
       <use x="95.410156" xlink:href="#DejaVuSans-38"/>
       <use x="159.033203" xlink:href="#DejaVuSans-30"/>
      </g>
     </g>
    </g>
    <g id="ytick_5">
     <g id="line2d_21">
      <path clip-path="url(#p2424cb2d0d)" d="M 57.05 87.572984 
L 565.2 87.572984 
" style="fill:none;stroke:#ffffff;stroke-linecap:square;stroke-width:0.8;"/>
     </g>
     <g id="line2d_22">
      <g>
       <use style="fill:#555555;stroke:#555555;stroke-width:0.8;" x="57.05" xlink:href="#m68e2ad8503" y="87.572984"/>
      </g>
     </g>
     <g id="text_12">
      <!-- 0.85 -->
      <g style="fill:#555555;" transform="translate(27.784375 91.372203)scale(0.1 -0.1)">
       <use xlink:href="#DejaVuSans-30"/>
       <use x="63.623047" xlink:href="#DejaVuSans-2e"/>
       <use x="95.410156" xlink:href="#DejaVuSans-38"/>
       <use x="159.033203" xlink:href="#DejaVuSans-35"/>
      </g>
     </g>
    </g>
    <g id="ytick_6">
     <g id="line2d_23">
      <path clip-path="url(#p2424cb2d0d)" d="M 57.05 51.341536 
L 565.2 51.341536 
" style="fill:none;stroke:#ffffff;stroke-linecap:square;stroke-width:0.8;"/>
     </g>
     <g id="line2d_24">
      <g>
       <use style="fill:#555555;stroke:#555555;stroke-width:0.8;" x="57.05" xlink:href="#m68e2ad8503" y="51.341536"/>
      </g>
     </g>
     <g id="text_13">
      <!-- 0.90 -->
      <g style="fill:#555555;" transform="translate(27.784375 55.140755)scale(0.1 -0.1)">
       <defs>
        <path d="M 703 97 
L 703 672 
Q 941 559 1184 500 
Q 1428 441 1663 441 
Q 2288 441 2617 861 
Q 2947 1281 2994 2138 
Q 2813 1869 2534 1725 
Q 2256 1581 1919 1581 
Q 1219 1581 811 2004 
Q 403 2428 403 3163 
Q 403 3881 828 4315 
Q 1253 4750 1959 4750 
Q 2769 4750 3195 4129 
Q 3622 3509 3622 2328 
Q 3622 1225 3098 567 
Q 2575 -91 1691 -91 
Q 1453 -91 1209 -44 
Q 966 3 703 97 
z
M 1959 2075 
Q 2384 2075 2632 2365 
Q 2881 2656 2881 3163 
Q 2881 3666 2632 3958 
Q 2384 4250 1959 4250 
Q 1534 4250 1286 3958 
Q 1038 3666 1038 3163 
Q 1038 2656 1286 2365 
Q 1534 2075 1959 2075 
z
" id="DejaVuSans-39" transform="scale(0.015625)"/>
       </defs>
       <use xlink:href="#DejaVuSans-30"/>
       <use x="63.623047" xlink:href="#DejaVuSans-2e"/>
       <use x="95.410156" xlink:href="#DejaVuSans-39"/>
       <use x="159.033203" xlink:href="#DejaVuSans-30"/>
      </g>
     </g>
    </g>
    <g id="ytick_7">
     <g id="line2d_25">
      <path clip-path="url(#p2424cb2d0d)" d="M 57.05 15.110088 
L 565.2 15.110088 
" style="fill:none;stroke:#ffffff;stroke-linecap:square;stroke-width:0.8;"/>
     </g>
     <g id="line2d_26">
      <g>
       <use style="fill:#555555;stroke:#555555;stroke-width:0.8;" x="57.05" xlink:href="#m68e2ad8503" y="15.110088"/>
      </g>
     </g>
     <g id="text_14">
      <!-- 0.95 -->
      <g style="fill:#555555;" transform="translate(27.784375 18.909307)scale(0.1 -0.1)">
       <use xlink:href="#DejaVuSans-30"/>
       <use x="63.623047" xlink:href="#DejaVuSans-2e"/>
       <use x="95.410156" xlink:href="#DejaVuSans-39"/>
       <use x="159.033203" xlink:href="#DejaVuSans-35"/>
      </g>
     </g>
    </g>
    <g id="text_15">
     <!-- Accuracy -->
     <g style="fill:#555555;" transform="translate(21.28875 154.39375)rotate(-90)scale(0.12 -0.12)">
      <defs>
       <path d="M 2188 4044 
L 1331 1722 
L 3047 1722 
L 2188 4044 
z
M 1831 4666 
L 2547 4666 
L 4325 0 
L 3669 0 
L 3244 1197 
L 1141 1197 
L 716 0 
L 50 0 
L 1831 4666 
z
" id="DejaVuSans-41" transform="scale(0.015625)"/>
       <path d="M 2194 1759 
Q 1497 1759 1228 1600 
Q 959 1441 959 1056 
Q 959 750 1161 570 
Q 1363 391 1709 391 
Q 2188 391 2477 730 
Q 2766 1069 2766 1631 
L 2766 1759 
L 2194 1759 
z
M 3341 1997 
L 3341 0 
L 2766 0 
L 2766 531 
Q 2569 213 2275 61 
Q 1981 -91 1556 -91 
Q 1019 -91 701 211 
Q 384 513 384 1019 
Q 384 1609 779 1909 
Q 1175 2209 1959 2209 
L 2766 2209 
L 2766 2266 
Q 2766 2663 2505 2880 
Q 2244 3097 1772 3097 
Q 1472 3097 1187 3025 
Q 903 2953 641 2809 
L 641 3341 
Q 956 3463 1253 3523 
Q 1550 3584 1831 3584 
Q 2591 3584 2966 3190 
Q 3341 2797 3341 1997 
z
" id="DejaVuSans-61" transform="scale(0.015625)"/>
       <path d="M 2059 -325 
Q 1816 -950 1584 -1140 
Q 1353 -1331 966 -1331 
L 506 -1331 
L 506 -850 
L 844 -850 
Q 1081 -850 1212 -737 
Q 1344 -625 1503 -206 
L 1606 56 
L 191 3500 
L 800 3500 
L 1894 763 
L 2988 3500 
L 3597 3500 
L 2059 -325 
z
" id="DejaVuSans-79" transform="scale(0.015625)"/>
      </defs>
      <use xlink:href="#DejaVuSans-41"/>
      <use x="66.658203" xlink:href="#DejaVuSans-63"/>
      <use x="121.638672" xlink:href="#DejaVuSans-63"/>
      <use x="176.619141" xlink:href="#DejaVuSans-75"/>
      <use x="239.998047" xlink:href="#DejaVuSans-72"/>
      <use x="281.111328" xlink:href="#DejaVuSans-61"/>
      <use x="342.390625" xlink:href="#DejaVuSans-63"/>
      <use x="397.371094" xlink:href="#DejaVuSans-79"/>
     </g>
    </g>
   </g>
   <g id="line2d_27">
    <path clip-path="url(#p2424cb2d0d)" d="M 80.147727 228.303174 
L 84.813935 203.122318 
L 89.480142 189.970302 
L 94.14635 176.55742 
L 98.812557 171.622697 
L 103.478765 162.572081 
L 108.144972 157.506925 
L 112.81118 154.746089 
L 117.477388 153.028718 
L 122.143595 148.18095 
L 126.809803 145.854891 
L 131.47601 142.978114 
L 136.142218 145.130262 
L 140.808425 140.869444 
L 145.474633 136.862246 
L 150.14084 136.398483 
L 154.807048 135.130383 
L 159.473255 133.485475 
L 164.139463 133.086929 
L 168.80567 131.942015 
L 173.471878 128.181191 
L 178.138085 126.289909 
L 182.804293 126.09426 
L 187.4705 127.768153 
L 192.136708 125.376877 
L 196.802916 125.529049 
L 201.469123 123.724723 
L 206.135331 123.992836 
L 210.801538 124.565293 
L 215.467746 125.884117 
L 220.133953 122.021845 
L 224.800161 121.920397 
L 229.466368 121.847934 
L 234.132576 121.130551 
L 238.798783 121.956628 
L 243.464991 119.732017 
L 248.131198 119.130575 
L 252.797406 117.978415 
L 257.463613 119.724771 
L 262.129821 120.043608 
L 266.796028 120.152302 
L 271.462236 116.116119 
L 276.128444 118.826231 
L 280.794651 116.579881 
L 285.460859 115.529169 
L 290.127066 115.39149 
L 294.793274 115.942208 
L 299.459481 115.485692 
L 304.125689 116.48568 
L 308.791896 115.072653 
L 313.458104 113.666873 
L 318.124311 113.826291 
L 322.790519 117.529145 
L 327.456726 113.782814 
L 332.122934 113.98571 
L 336.789141 115.949454 
L 341.455349 112.94949 
L 346.121556 112.456743 
L 350.787764 114.587152 
L 355.453972 114.152374 
L 360.120179 111.058209 
L 364.786387 113.369775 
L 369.452594 113.558179 
L 374.118802 112.761087 
L 378.785009 110.297348 
L 383.451217 112.137906 
L 388.117424 113.65238 
L 392.783632 115.710327 
L 397.449839 109.985758 
L 402.116047 112.377033 
L 406.782254 111.536464 
L 411.448462 112.521959 
L 416.114669 111.116179 
L 420.780877 113.108909 
L 425.447084 110.021989 
L 430.113292 109.695906 
L 434.7795 109.550981 
L 439.445707 110.637924 
L 444.111915 108.239402 
L 448.778122 110.478506 
L 453.44433 110.014743 
L 458.110537 110.261117 
L 462.776745 109.478518 
L 467.442952 108.000275 
L 472.10916 107.268399 
L 476.775367 109.464025 
L 481.441575 109.579966 
L 486.107782 109.478518 
L 490.77399 109.137942 
L 495.440197 110.116191 
L 500.106405 108.391574 
L 504.772612 111.137918 
L 509.43882 108.978524 
L 514.105028 108.906061 
L 518.771235 108.232156 
L 523.437443 107.377094 
L 528.10365 109.608951 
L 532.769858 110.543722 
L 537.436065 109.246636 
L 542.102273 107.674192 
" style="fill:none;stroke:#e24a33;stroke-linecap:square;stroke-width:1.5;"/>
   </g>
   <g id="line2d_28">
    <path clip-path="url(#p2424cb2d0d)" d="M 80.147727 232.636364 
L 84.813935 205.302259 
L 89.480142 195.304214 
L 94.14635 183.517527 
L 98.812557 179.435757 
L 103.478765 170.676001 
L 108.144972 162.879361 
L 112.81118 162.51246 
L 117.477388 160.311056 
L 122.143595 156.871361 
L 126.809803 154.945132 
L 131.47601 152.101652 
L 136.142218 153.752705 
L 140.808425 149.304033 
L 145.474633 147.377805 
L 150.14084 144.855362 
L 154.807048 144.99295 
L 159.473255 142.287057 
L 164.139463 141.966019 
L 168.80567 144.580186 
L 173.471878 141.232217 
L 178.138085 138.618049 
L 182.804293 138.205286 
L 187.4705 140.544278 
L 192.136708 138.067698 
L 196.802916 137.333897 
L 201.469123 139.305988 
L 206.135331 139.305988 
L 210.801538 140.131515 
L 215.467746 142.149469 
L 220.133953 138.8015 
L 224.800161 138.205286 
L 229.466368 137.609072 
L 234.132576 137.196309 
L 238.798783 138.98495 
L 243.464991 138.113561 
L 248.131198 135.591118 
L 252.797406 135.453531 
L 257.463613 136.233195 
L 262.129821 138.159424 
L 266.796028 138.755637 
L 271.462236 134.673867 
L 276.128444 135.178355 
L 280.794651 133.664889 
L 285.460859 134.077653 
L 290.127066 132.243149 
L 294.793274 133.664889 
L 299.459481 134.123515 
L 304.125689 134.490416 
L 308.791896 133.160401 
L 313.458104 132.655912 
L 318.124311 134.903179 
L 322.790519 138.388737 
L 327.456726 133.481439 
L 332.122934 135.728706 
L 336.789141 136.829408 
L 341.455349 134.857317 
L 346.121556 132.839363 
L 350.787764 134.306966 
L 355.453972 135.774569 
L 360.120179 130.913134 
L 364.786387 132.701775 
L 369.452594 133.940065 
L 374.118802 135.315943 
L 378.785009 131.142447 
L 383.451217 133.619027 
L 388.117424 135.591118 
L 392.783632 137.609072 
L 397.449839 132.197287 
L 402.116047 134.077653 
L 406.782254 132.197287 
L 411.448462 133.160401 
L 416.114669 134.444554 
L 420.780877 134.719729 
L 425.447084 132.334874 
L 430.113292 131.004859 
L 434.7795 131.142447 
L 439.445707 133.160401 
L 444.111915 133.114538 
L 448.778122 133.114538 
L 453.44433 132.7935 
L 458.110537 135.315943 
L 462.776745 133.297989 
L 467.442952 132.380737 
L 472.10916 133.297989 
L 476.775367 134.444554 
L 481.441575 134.582141 
L 486.107782 134.215241 
L 490.77399 133.710752 
L 495.440197 135.407668 
L 500.106405 133.252126 
L 504.772612 136.416645 
L 509.43882 134.628004 
L 514.105028 133.297989 
L 518.771235 135.27008 
L 523.437443 131.784523 
L 528.10365 134.306966 
L 532.769858 136.141469 
L 537.436065 135.866294 
L 542.102273 134.811454 
" style="fill:none;stroke:#348abd;stroke-dasharray:5.55,2.4;stroke-dashoffset:0;stroke-width:1.5;"/>
   </g>
   <g id="line2d_29">
    <path clip-path="url(#p2424cb2d0d)" d="M 80.147727 203.129564 
L 84.813935 165.456105 
L 89.480142 147.536031 
L 94.14635 133.898514 
L 98.812557 124.500076 
L 103.478765 121.021857 
L 108.144972 112.804565 
L 112.81118 109.195912 
L 117.477388 105.732186 
L 122.143595 107.63796 
L 126.809803 100.362685 
L 131.47601 98.507635 
L 136.142218 98.790241 
L 140.808425 99.268496 
L 145.474633 95.101879 
L 150.14084 95.181588 
L 154.807048 93.797547 
L 159.473255 93.384509 
L 164.139463 94.26131 
L 168.80567 92.58017 
L 173.471878 90.435269 
L 178.138085 88.746883 
L 182.804293 90.362806 
L 187.4705 90.000491 
L 192.136708 89.101951 
L 196.802916 86.993281 
L 201.469123 89.145429 
L 206.135331 85.21794 
L 210.801538 85.15997 
L 215.467746 88.797607 
L 220.133953 84.544035 
L 224.800161 83.073038 
L 229.466368 81.95711 
L 234.132576 83.42086 
L 238.798783 84.913596 
L 243.464991 82.957098 
L 248.131198 82.203484 
L 252.797406 82.21073 
L 257.463613 80.478867 
L 262.129821 79.877425 
L 266.796028 79.855686 
L 271.462236 78.710772 
L 276.128444 79.558588 
L 280.794651 76.964416 
L 285.460859 78.862944 
L 290.127066 81.232481 
L 294.793274 76.399206 
L 299.459481 77.01514 
L 304.125689 76.544132 
L 308.791896 76.768766 
L 313.458104 75.797764 
L 318.124311 77.768754 
L 322.790519 74.587633 
L 327.456726 76.015152 
L 332.122934 73.493444 
L 336.789141 76.8992 
L 341.455349 73.261562 
L 346.121556 76.44993 
L 350.787764 76.305004 
L 355.453972 74.189087 
L 360.120179 71.935491 
L 364.786387 73.44272 
L 369.452594 73.623877 
L 374.118802 72.305052 
L 378.785009 71.710856 
L 383.451217 71.174631 
L 388.117424 73.370257 
L 392.783632 69.674649 
L 397.449839 71.413758 
L 402.116047 73.55866 
L 406.782254 72.971711 
L 411.448462 73.602138 
L 416.114669 71.25434 
L 420.780877 73.370257 
L 425.447084 74.660096 
L 430.113292 71.920999 
L 434.7795 70.341308 
L 439.445707 68.55872 
L 444.111915 68.761617 
L 448.778122 71.239848 
L 453.44433 70.290584 
L 458.110537 71.225355 
L 462.776745 70.652898 
L 467.442952 68.928281 
L 472.10916 70.268845 
L 476.775367 65.783391 
L 481.441575 70.7471 
L 486.107782 69.254364 
L 490.77399 66.783379 
L 495.440197 68.507996 
L 500.106405 68.906542 
L 504.772612 69.645664 
L 509.43882 66.45005 
L 514.105028 68.18916 
L 518.771235 68.848572 
L 523.437443 67.15294 
L 528.10365 65.23992 
L 532.769858 65.500786 
L 537.436065 68.986251 
L 542.102273 64.90659 
" style="fill:none;stroke:#988ed5;stroke-linecap:square;stroke-width:1.5;"/>
   </g>
   <g id="line2d_30">
    <path clip-path="url(#p2424cb2d0d)" d="M 80.147727 205.669159 
L 84.813935 170.859452 
L 89.480142 155.26617 
L 94.14635 143.020858 
L 98.812557 133.297989 
L 103.478765 133.435577 
L 108.144972 124.950997 
L 112.81118 121.144402 
L 117.477388 118.851272 
L 122.143595 122.474417 
L 126.809803 116.420555 
L 131.47601 116.69573 
L 136.142218 117.383669 
L 140.808425 116.649868 
L 145.474633 113.622937 
L 150.14084 114.310876 
L 154.807048 115.365715 
L 159.473255 115.27399 
L 164.139463 115.228127 
L 168.80567 113.577074 
L 173.471878 112.705685 
L 178.138085 113.85225 
L 182.804293 115.411578 
L 187.4705 114.0357 
L 192.136708 117.200219 
L 196.802916 114.907089 
L 201.469123 114.402601 
L 206.135331 112.292921 
L 210.801538 112.522234 
L 215.467746 117.475394 
L 220.133953 114.173288 
L 224.800161 112.843273 
L 229.466368 113.347761 
L 234.132576 113.118448 
L 238.798783 114.402601 
L 243.464991 114.21915 
L 248.131198 112.522234 
L 252.797406 115.044677 
L 257.463613 111.604983 
L 262.129821 110.962906 
L 266.796028 112.338784 
L 271.462236 114.586051 
L 276.128444 111.834296 
L 280.794651 110.32083 
L 285.460859 113.393624 
L 290.127066 113.485349 
L 294.793274 113.072586 
L 299.459481 110.458418 
L 304.125689 111.421532 
L 308.791896 113.531211 
L 313.458104 109.999792 
L 318.124311 116.879181 
L 322.790519 109.953929 
L 327.456726 113.256036 
L 332.122934 110.458418 
L 336.789141 115.824341 
L 341.455349 113.943975 
L 346.121556 115.45744 
L 350.787764 115.686753 
L 355.453972 113.943975 
L 360.120179 111.926021 
L 364.786387 113.622937 
L 369.452594 116.558143 
L 374.118802 113.118448 
L 378.785009 114.723639 
L 383.451217 112.568097 
L 388.117424 115.136402 
L 392.783632 114.402601 
L 397.449839 115.640891 
L 402.116047 115.961929 
L 406.782254 117.429532 
L 411.448462 116.787456 
L 416.114669 115.228127 
L 420.780877 117.429532 
L 425.447084 117.062631 
L 430.113292 115.549166 
L 434.7795 117.108494 
L 439.445707 113.806387 
L 444.111915 113.301899 
L 448.778122 116.51228 
L 453.44433 117.521257 
L 458.110537 115.182265 
L 462.776745 114.815364 
L 467.442952 115.961929 
L 472.10916 116.970906 
L 476.775367 113.668799 
L 481.441575 116.32883 
L 486.107782 118.025746 
L 490.77399 116.558143 
L 495.440197 117.429532 
L 500.106405 117.612982 
L 504.772612 117.108494 
L 509.43882 115.549166 
L 514.105028 117.337807 
L 518.771235 116.741593 
L 523.437443 116.51228 
L 528.10365 114.310876 
L 532.769858 115.686753 
L 537.436065 119.126448 
L 542.102273 116.32883 
" style="fill:none;stroke:#777777;stroke-dasharray:5.55,2.4;stroke-dashoffset:0;stroke-width:1.5;"/>
   </g>
   <g id="line2d_31">
    <path clip-path="url(#p2424cb2d0d)" d="M 80.147727 168.014045 
L 84.813935 132.992727 
L 89.480142 111.637912 
L 94.14635 106.775652 
L 98.812557 100.790216 
L 103.478765 90.507732 
L 108.144972 85.464314 
L 112.81118 81.681751 
L 117.477388 78.181793 
L 122.143595 75.906458 
L 126.809803 73.254316 
L 131.47601 71.76158 
L 136.142218 71.580423 
L 140.808425 69.421029 
L 145.474633 65.392092 
L 150.14084 63.595012 
L 154.807048 67.508008 
L 159.473255 62.399374 
L 164.139463 62.160247 
L 168.80567 60.653018 
L 173.471878 59.102312 
L 178.138085 60.355921 
L 182.804293 57.392188 
L 187.4705 56.551619 
L 192.136708 54.008171 
L 196.802916 54.682076 
L 201.469123 50.935744 
L 206.135331 51.848777 
L 210.801538 50.682124 
L 215.467746 49.450255 
L 220.133953 48.145923 
L 224.800161 49.73286 
L 229.466368 48.790842 
L 234.132576 49.138664 
L 238.798783 45.703923 
L 243.464991 44.472054 
L 248.131198 46.001021 
L 252.797406 43.559021 
L 257.463613 46.073484 
L 262.129821 43.486558 
L 266.796028 43.414096 
L 271.462236 39.602547 
L 276.128444 39.914138 
L 280.794651 39.696749 
L 285.460859 39.435883 
L 290.127066 39.341681 
L 294.793274 39.508345 
L 299.459481 41.740203 
L 304.125689 42.580772 
L 308.791896 38.341693 
L 313.458104 38.443141 
L 318.124311 38.370678 
L 322.790519 36.211284 
L 327.456726 37.247503 
L 332.122934 35.776506 
L 336.789141 35.073616 
L 341.455349 35.580857 
L 346.121556 34.211308 
L 350.787764 35.276512 
L 355.453972 33.617112 
L 360.120179 36.501135 
L 364.786387 36.030126 
L 369.452594 33.392477 
L 374.118802 32.305534 
L 378.785009 30.551932 
L 383.451217 34.863474 
L 388.117424 30.5157 
L 392.783632 30.580917 
L 397.449839 29.276585 
L 402.116047 34.320002 
L 406.782254 28.950502 
L 411.448462 27.972252 
L 416.114669 28.501232 
L 420.780877 29.573682 
L 425.447084 29.718608 
L 430.113292 30.254834 
L 434.7795 28.783837 
L 439.445707 28.791083 
L 444.111915 28.196887 
L 448.778122 29.175137 
L 453.44433 31.580905 
L 458.110537 28.986733 
L 462.776745 29.472234 
L 467.442952 27.31284 
L 472.10916 25.51576 
L 476.775367 27.37081 
L 481.441575 29.747593 
L 486.107782 25.349096 
L 490.77399 24.573743 
L 495.440197 26.878063 
L 500.106405 27.515736 
L 504.772612 24.327369 
L 509.43882 22.138989 
L 514.105028 22.602752 
L 518.771235 24.841855 
L 523.437443 21.363636 
L 528.10365 24.69693 
L 532.769858 23.523031 
L 537.436065 23.066514 
L 542.102273 23.298396 
" style="fill:none;stroke:#fbc15e;stroke-linecap:square;stroke-width:1.5;"/>
   </g>
   <g id="line2d_32">
    <path clip-path="url(#p2424cb2d0d)" d="M 80.147727 172.464643 
L 84.813935 140.911179 
L 89.480142 122.978905 
L 94.14635 119.768524 
L 98.812557 116.282967 
L 103.478765 105.688708 
L 108.144972 106.330784 
L 112.81118 102.753502 
L 117.477388 101.377625 
L 122.143595 100.59796 
L 126.809803 99.497258 
L 131.47601 102.065563 
L 136.142218 103.808342 
L 140.808425 102.065563 
L 145.474633 100.001747 
L 150.14084 101.285899 
L 154.807048 103.349716 
L 159.473255 102.019701 
L 164.139463 100.41451 
L 168.80567 102.294876 
L 173.471878 102.524189 
L 178.138085 104.909044 
L 182.804293 105.918021 
L 187.4705 102.386602 
L 192.136708 101.606937 
L 196.802916 103.624892 
L 201.469123 102.478327 
L 206.135331 103.349716 
L 210.801538 101.927976 
L 215.467746 102.203151 
L 220.133953 102.524189 
L 224.800161 105.826296 
L 229.466368 101.83625 
L 234.132576 106.330784 
L 238.798783 106.376647 
L 243.464991 106.376647 
L 248.131198 107.018723 
L 252.797406 107.064586 
L 257.463613 107.431487 
L 262.129821 106.651823 
L 266.796028 109.403578 
L 271.462236 106.009746 
L 276.128444 106.284922 
L 280.794651 108.394601 
L 285.460859 107.064586 
L 290.127066 106.972861 
L 294.793274 108.257013 
L 299.459481 113.072586 
L 304.125689 112.79741 
L 308.791896 110.13738 
L 313.458104 109.128403 
L 318.124311 109.174265 
L 322.790519 110.733593 
L 327.456726 110.50428 
L 332.122934 109.953929 
L 336.789141 111.054632 
L 341.455349 110.733593 
L 346.121556 112.476372 
L 350.787764 114.448463 
L 355.453972 110.962906 
L 360.120179 113.943975 
L 364.786387 114.861227 
L 369.452594 113.301899 
L 374.118802 114.769501 
L 378.785009 113.668799 
L 383.451217 114.631914 
L 388.117424 112.384647 
L 392.783632 115.503303 
L 397.449839 115.136402 
L 402.116047 119.218173 
L 406.782254 113.485349 
L 411.448462 115.044677 
L 416.114669 113.806387 
L 420.780877 114.586051 
L 425.447084 115.503303 
L 430.113292 117.246081 
L 434.7795 118.438509 
L 439.445707 116.191242 
L 444.111915 116.558143 
L 448.778122 119.080585 
L 453.44433 117.842295 
L 458.110537 119.17231 
L 462.776745 117.75057 
L 467.442952 118.621959 
L 472.10916 116.420555 
L 476.775367 118.117471 
L 481.441575 121.006814 
L 486.107782 120.364738 
L 490.77399 118.300921 
L 495.440197 118.209196 
L 500.106405 121.236127 
L 504.772612 118.300921 
L 509.43882 118.576097 
L 514.105028 119.447486 
L 518.771235 120.318875 
L 523.437443 119.309898 
L 528.10365 118.713684 
L 532.769858 120.639913 
L 537.436065 122.566142 
L 542.102273 120.273013 
" style="fill:none;stroke:#8eba42;stroke-dasharray:5.55,2.4;stroke-dashoffset:0;stroke-width:1.5;"/>
   </g>
   <g id="patch_3">
    <path d="M 57.05 243.2 
L 57.05 10.8 
" style="fill:none;stroke:#ffffff;stroke-linecap:square;stroke-linejoin:miter;"/>
   </g>
   <g id="patch_4">
    <path d="M 565.2 243.2 
L 565.2 10.8 
" style="fill:none;stroke:#ffffff;stroke-linecap:square;stroke-linejoin:miter;"/>
   </g>
   <g id="patch_5">
    <path d="M 57.05 243.2 
L 565.2 243.2 
" style="fill:none;stroke:#ffffff;stroke-linecap:square;stroke-linejoin:miter;"/>
   </g>
   <g id="patch_6">
    <path d="M 57.05 10.8 
L 565.2 10.8 
" style="fill:none;stroke:#ffffff;stroke-linecap:square;stroke-linejoin:miter;"/>
   </g>
   <g id="legend_1">
    <g id="patch_7">
     <path d="M 444.617187 106.86875 
L 558.2 106.86875 
Q 560.2 106.86875 560.2 104.86875 
L 560.2 17.8 
Q 560.2 15.8 558.2 15.8 
L 444.617187 15.8 
Q 442.617187 15.8 442.617187 17.8 
L 442.617187 104.86875 
Q 442.617187 106.86875 444.617187 106.86875 
z
" style="fill:#e5e5e5;opacity:0.8;stroke:#cccccc;stroke-linejoin:miter;stroke-width:0.5;"/>
    </g>
    <g id="line2d_33">
     <path d="M 446.617187 23.898438 
L 466.617187 23.898438 
" style="fill:none;stroke:#e24a33;stroke-linecap:square;stroke-width:1.5;"/>
    </g>
    <g id="line2d_34"/>
    <g id="text_16">
     <!-- width 32(train) -->
     <g transform="translate(474.617187 27.398438)scale(0.1 -0.1)">
      <defs>
       <path d="M 269 3500 
L 844 3500 
L 1563 769 
L 2278 3500 
L 2956 3500 
L 3675 769 
L 4391 3500 
L 4966 3500 
L 4050 0 
L 3372 0 
L 2619 2869 
L 1863 0 
L 1184 0 
L 269 3500 
z
" id="DejaVuSans-77" transform="scale(0.015625)"/>
       <path d="M 603 3500 
L 1178 3500 
L 1178 0 
L 603 0 
L 603 3500 
z
M 603 4863 
L 1178 4863 
L 1178 4134 
L 603 4134 
L 603 4863 
z
" id="DejaVuSans-69" transform="scale(0.015625)"/>
       <path d="M 2906 2969 
L 2906 4863 
L 3481 4863 
L 3481 0 
L 2906 0 
L 2906 525 
Q 2725 213 2448 61 
Q 2172 -91 1784 -91 
Q 1150 -91 751 415 
Q 353 922 353 1747 
Q 353 2572 751 3078 
Q 1150 3584 1784 3584 
Q 2172 3584 2448 3432 
Q 2725 3281 2906 2969 
z
M 947 1747 
Q 947 1113 1208 752 
Q 1469 391 1925 391 
Q 2381 391 2643 752 
Q 2906 1113 2906 1747 
Q 2906 2381 2643 2742 
Q 2381 3103 1925 3103 
Q 1469 3103 1208 2742 
Q 947 2381 947 1747 
z
" id="DejaVuSans-64" transform="scale(0.015625)"/>
       <path d="M 1172 4494 
L 1172 3500 
L 2356 3500 
L 2356 3053 
L 1172 3053 
L 1172 1153 
Q 1172 725 1289 603 
Q 1406 481 1766 481 
L 2356 481 
L 2356 0 
L 1766 0 
Q 1100 0 847 248 
Q 594 497 594 1153 
L 594 3053 
L 172 3053 
L 172 3500 
L 594 3500 
L 594 4494 
L 1172 4494 
z
" id="DejaVuSans-74" transform="scale(0.015625)"/>
       <path d="M 2597 2516 
Q 3050 2419 3304 2112 
Q 3559 1806 3559 1356 
Q 3559 666 3084 287 
Q 2609 -91 1734 -91 
Q 1441 -91 1130 -33 
Q 819 25 488 141 
L 488 750 
Q 750 597 1062 519 
Q 1375 441 1716 441 
Q 2309 441 2620 675 
Q 2931 909 2931 1356 
Q 2931 1769 2642 2001 
Q 2353 2234 1838 2234 
L 1294 2234 
L 1294 2753 
L 1863 2753 
Q 2328 2753 2575 2939 
Q 2822 3125 2822 3475 
Q 2822 3834 2567 4026 
Q 2313 4219 1838 4219 
Q 1578 4219 1281 4162 
Q 984 4106 628 3988 
L 628 4550 
Q 988 4650 1302 4700 
Q 1616 4750 1894 4750 
Q 2613 4750 3031 4423 
Q 3450 4097 3450 3541 
Q 3450 3153 3228 2886 
Q 3006 2619 2597 2516 
z
" id="DejaVuSans-33" transform="scale(0.015625)"/>
       <path d="M 1984 4856 
Q 1566 4138 1362 3434 
Q 1159 2731 1159 2009 
Q 1159 1288 1364 580 
Q 1569 -128 1984 -844 
L 1484 -844 
Q 1016 -109 783 600 
Q 550 1309 550 2009 
Q 550 2706 781 3412 
Q 1013 4119 1484 4856 
L 1984 4856 
z
" id="DejaVuSans-28" transform="scale(0.015625)"/>
       <path d="M 513 4856 
L 1013 4856 
Q 1481 4119 1714 3412 
Q 1947 2706 1947 2009 
Q 1947 1309 1714 600 
Q 1481 -109 1013 -844 
L 513 -844 
Q 928 -128 1133 580 
Q 1338 1288 1338 2009 
Q 1338 2731 1133 3434 
Q 928 4138 513 4856 
z
" id="DejaVuSans-29" transform="scale(0.015625)"/>
      </defs>
      <use xlink:href="#DejaVuSans-77"/>
      <use x="81.787109" xlink:href="#DejaVuSans-69"/>
      <use x="109.570312" xlink:href="#DejaVuSans-64"/>
      <use x="173.046875" xlink:href="#DejaVuSans-74"/>
      <use x="212.255859" xlink:href="#DejaVuSans-68"/>
      <use x="275.634766" xlink:href="#DejaVuSans-20"/>
      <use x="307.421875" xlink:href="#DejaVuSans-33"/>
      <use x="371.044922" xlink:href="#DejaVuSans-32"/>
      <use x="434.667969" xlink:href="#DejaVuSans-28"/>
      <use x="473.681641" xlink:href="#DejaVuSans-74"/>
      <use x="512.890625" xlink:href="#DejaVuSans-72"/>
      <use x="554.003906" xlink:href="#DejaVuSans-61"/>
      <use x="615.283203" xlink:href="#DejaVuSans-69"/>
      <use x="643.066406" xlink:href="#DejaVuSans-6e"/>
      <use x="706.445312" xlink:href="#DejaVuSans-29"/>
     </g>
    </g>
    <g id="line2d_35">
     <path d="M 446.617187 38.576563 
L 466.617187 38.576563 
" style="fill:none;stroke:#348abd;stroke-dasharray:5.55,2.4;stroke-dashoffset:0;stroke-width:1.5;"/>
    </g>
    <g id="line2d_36"/>
    <g id="text_17">
     <!-- width 32(valid) -->
     <g transform="translate(474.617187 42.076563)scale(0.1 -0.1)">
      <defs>
       <path d="M 191 3500 
L 800 3500 
L 1894 563 
L 2988 3500 
L 3597 3500 
L 2284 0 
L 1503 0 
L 191 3500 
z
" id="DejaVuSans-76" transform="scale(0.015625)"/>
       <path d="M 603 4863 
L 1178 4863 
L 1178 0 
L 603 0 
L 603 4863 
z
" id="DejaVuSans-6c" transform="scale(0.015625)"/>
      </defs>
      <use xlink:href="#DejaVuSans-77"/>
      <use x="81.787109" xlink:href="#DejaVuSans-69"/>
      <use x="109.570312" xlink:href="#DejaVuSans-64"/>
      <use x="173.046875" xlink:href="#DejaVuSans-74"/>
      <use x="212.255859" xlink:href="#DejaVuSans-68"/>
      <use x="275.634766" xlink:href="#DejaVuSans-20"/>
      <use x="307.421875" xlink:href="#DejaVuSans-33"/>
      <use x="371.044922" xlink:href="#DejaVuSans-32"/>
      <use x="434.667969" xlink:href="#DejaVuSans-28"/>
      <use x="473.681641" xlink:href="#DejaVuSans-76"/>
      <use x="532.861328" xlink:href="#DejaVuSans-61"/>
      <use x="594.140625" xlink:href="#DejaVuSans-6c"/>
      <use x="621.923828" xlink:href="#DejaVuSans-69"/>
      <use x="649.707031" xlink:href="#DejaVuSans-64"/>
      <use x="713.183594" xlink:href="#DejaVuSans-29"/>
     </g>
    </g>
    <g id="line2d_37">
     <path d="M 446.617187 53.254688 
L 466.617187 53.254688 
" style="fill:none;stroke:#988ed5;stroke-linecap:square;stroke-width:1.5;"/>
    </g>
    <g id="line2d_38"/>
    <g id="text_18">
     <!-- width 64(train) -->
     <g transform="translate(474.617187 56.754688)scale(0.1 -0.1)">
      <use xlink:href="#DejaVuSans-77"/>
      <use x="81.787109" xlink:href="#DejaVuSans-69"/>
      <use x="109.570312" xlink:href="#DejaVuSans-64"/>
      <use x="173.046875" xlink:href="#DejaVuSans-74"/>
      <use x="212.255859" xlink:href="#DejaVuSans-68"/>
      <use x="275.634766" xlink:href="#DejaVuSans-20"/>
      <use x="307.421875" xlink:href="#DejaVuSans-36"/>
      <use x="371.044922" xlink:href="#DejaVuSans-34"/>
      <use x="434.667969" xlink:href="#DejaVuSans-28"/>
      <use x="473.681641" xlink:href="#DejaVuSans-74"/>
      <use x="512.890625" xlink:href="#DejaVuSans-72"/>
      <use x="554.003906" xlink:href="#DejaVuSans-61"/>
      <use x="615.283203" xlink:href="#DejaVuSans-69"/>
      <use x="643.066406" xlink:href="#DejaVuSans-6e"/>
      <use x="706.445312" xlink:href="#DejaVuSans-29"/>
     </g>
    </g>
    <g id="line2d_39">
     <path d="M 446.617187 67.932813 
L 466.617187 67.932813 
" style="fill:none;stroke:#777777;stroke-dasharray:5.55,2.4;stroke-dashoffset:0;stroke-width:1.5;"/>
    </g>
    <g id="line2d_40"/>
    <g id="text_19">
     <!-- width 64(valid) -->
     <g transform="translate(474.617187 71.432813)scale(0.1 -0.1)">
      <use xlink:href="#DejaVuSans-77"/>
      <use x="81.787109" xlink:href="#DejaVuSans-69"/>
      <use x="109.570312" xlink:href="#DejaVuSans-64"/>
      <use x="173.046875" xlink:href="#DejaVuSans-74"/>
      <use x="212.255859" xlink:href="#DejaVuSans-68"/>
      <use x="275.634766" xlink:href="#DejaVuSans-20"/>
      <use x="307.421875" xlink:href="#DejaVuSans-36"/>
      <use x="371.044922" xlink:href="#DejaVuSans-34"/>
      <use x="434.667969" xlink:href="#DejaVuSans-28"/>
      <use x="473.681641" xlink:href="#DejaVuSans-76"/>
      <use x="532.861328" xlink:href="#DejaVuSans-61"/>
      <use x="594.140625" xlink:href="#DejaVuSans-6c"/>
      <use x="621.923828" xlink:href="#DejaVuSans-69"/>
      <use x="649.707031" xlink:href="#DejaVuSans-64"/>
      <use x="713.183594" xlink:href="#DejaVuSans-29"/>
     </g>
    </g>
    <g id="line2d_41">
     <path d="M 446.617187 82.610938 
L 466.617187 82.610938 
" style="fill:none;stroke:#fbc15e;stroke-linecap:square;stroke-width:1.5;"/>
    </g>
    <g id="line2d_42"/>
    <g id="text_20">
     <!-- width 128(train) -->
     <g transform="translate(474.617187 86.110938)scale(0.1 -0.1)">
      <use xlink:href="#DejaVuSans-77"/>
      <use x="81.787109" xlink:href="#DejaVuSans-69"/>
      <use x="109.570312" xlink:href="#DejaVuSans-64"/>
      <use x="173.046875" xlink:href="#DejaVuSans-74"/>
      <use x="212.255859" xlink:href="#DejaVuSans-68"/>
      <use x="275.634766" xlink:href="#DejaVuSans-20"/>
      <use x="307.421875" xlink:href="#DejaVuSans-31"/>
      <use x="371.044922" xlink:href="#DejaVuSans-32"/>
      <use x="434.667969" xlink:href="#DejaVuSans-38"/>
      <use x="498.291016" xlink:href="#DejaVuSans-28"/>
      <use x="537.304688" xlink:href="#DejaVuSans-74"/>
      <use x="576.513672" xlink:href="#DejaVuSans-72"/>
      <use x="617.626953" xlink:href="#DejaVuSans-61"/>
      <use x="678.90625" xlink:href="#DejaVuSans-69"/>
      <use x="706.689453" xlink:href="#DejaVuSans-6e"/>
      <use x="770.068359" xlink:href="#DejaVuSans-29"/>
     </g>
    </g>
    <g id="line2d_43">
     <path d="M 446.617187 97.289063 
L 466.617187 97.289063 
" style="fill:none;stroke:#8eba42;stroke-dasharray:5.55,2.4;stroke-dashoffset:0;stroke-width:1.5;"/>
    </g>
    <g id="line2d_44"/>
    <g id="text_21">
     <!-- width 128(valid) -->
     <g transform="translate(474.617187 100.789063)scale(0.1 -0.1)">
      <use xlink:href="#DejaVuSans-77"/>
      <use x="81.787109" xlink:href="#DejaVuSans-69"/>
      <use x="109.570312" xlink:href="#DejaVuSans-64"/>
      <use x="173.046875" xlink:href="#DejaVuSans-74"/>
      <use x="212.255859" xlink:href="#DejaVuSans-68"/>
      <use x="275.634766" xlink:href="#DejaVuSans-20"/>
      <use x="307.421875" xlink:href="#DejaVuSans-31"/>
      <use x="371.044922" xlink:href="#DejaVuSans-32"/>
      <use x="434.667969" xlink:href="#DejaVuSans-38"/>
      <use x="498.291016" xlink:href="#DejaVuSans-28"/>
      <use x="537.304688" xlink:href="#DejaVuSans-76"/>
      <use x="596.484375" xlink:href="#DejaVuSans-61"/>
      <use x="657.763672" xlink:href="#DejaVuSans-6c"/>
      <use x="685.546875" xlink:href="#DejaVuSans-69"/>
      <use x="713.330078" xlink:href="#DejaVuSans-64"/>
      <use x="776.806641" xlink:href="#DejaVuSans-29"/>
     </g>
    </g>
   </g>
  </g>
 </g>
 <defs>
  <clipPath id="p2424cb2d0d">
   <rect height="232.4" width="508.15" x="57.05" y="10.8"/>
  </clipPath>
 </defs>
</svg>
