<?xml version="1.0" encoding="utf-8" standalone="no"?>
<!DOCTYPE svg PUBLIC "-//W3C//DTD SVG 1.1//EN"
  "http://www.w3.org/Graphics/SVG/1.1/DTD/svg11.dtd">
<svg height="288pt" version="1.1" viewBox="0 0 576 288" width="576pt" xmlns="http://www.w3.org/2000/svg" xmlns:xlink="http://www.w3.org/1999/xlink">
 <metadata>
  <rdf:RDF xmlns:cc="http://creativecommons.org/ns#" xmlns:dc="http://purl.org/dc/elements/1.1/" xmlns:rdf="http://www.w3.org/1999/02/22-rdf-syntax-ns#">
   <cc:Work>
    <dc:type rdf:resource="http://purl.org/dc/dcmitype/StillImage"/>
    <dc:date>2021-11-05T00:35:15.946965</dc:date>
    <dc:format>image/svg+xml</dc:format>
    <dc:creator>
     <cc:Agent>
      <dc:title>Matplotlib v3.4.3, https://matplotlib.org/</dc:title>
     </cc:Agent>
    </dc:creator>
   </cc:Work>
  </rdf:RDF>
 </metadata>
 <defs>
  <style type="text/css">*{stroke-linecap:butt;stroke-linejoin:round;}</style>
 </defs>
 <g id="figure_1">
  <g id="patch_1">
   <path d="M 0 288 
L 576 288 
L 576 0 
L 0 0 
z
" style="fill:#ffffff;"/>
  </g>
  <g id="axes_1">
   <g id="patch_2">
    <path d="M 50.8 243.2 
L 565.2 243.2 
L 565.2 10.8 
L 50.8 10.8 
z
" style="fill:#e5e5e5;"/>
   </g>
   <g id="matplotlib.axis_1">
    <g id="xtick_1">
     <g id="line2d_1">
      <path clip-path="url(#pedde16815f)" d="M 69.458219 243.2 
L 69.458219 10.8 
" style="fill:none;stroke:#ffffff;stroke-linecap:square;stroke-width:0.8;"/>
     </g>
     <g id="line2d_2">
      <defs>
       <path d="M 0 0 
L 0 3.5 
" id="mcbe9268878" style="stroke:#555555;stroke-width:0.8;"/>
      </defs>
      <g>
       <use style="fill:#555555;stroke:#555555;stroke-width:0.8;" x="69.458219" xlink:href="#mcbe9268878" y="243.2"/>
      </g>
     </g>
     <g id="text_1">
      <!-- 0 -->
      <g style="fill:#555555;" transform="translate(66.276969 257.798437)scale(0.1 -0.1)">
       <defs>
        <path d="M 2034 4250 
Q 1547 4250 1301 3770 
Q 1056 3291 1056 2328 
Q 1056 1369 1301 889 
Q 1547 409 2034 409 
Q 2525 409 2770 889 
Q 3016 1369 3016 2328 
Q 3016 3291 2770 3770 
Q 2525 4250 2034 4250 
z
M 2034 4750 
Q 2819 4750 3233 4129 
Q 3647 3509 3647 2328 
Q 3647 1150 3233 529 
Q 2819 -91 2034 -91 
Q 1250 -91 836 529 
Q 422 1150 422 2328 
Q 422 3509 836 4129 
Q 1250 4750 2034 4750 
z
" id="DejaVuSans-30" transform="scale(0.015625)"/>
       </defs>
       <use xlink:href="#DejaVuSans-30"/>
      </g>
     </g>
    </g>
    <g id="xtick_2">
     <g id="line2d_3">
      <path clip-path="url(#pedde16815f)" d="M 163.930211 243.2 
L 163.930211 10.8 
" style="fill:none;stroke:#ffffff;stroke-linecap:square;stroke-width:0.8;"/>
     </g>
     <g id="line2d_4">
      <g>
       <use style="fill:#555555;stroke:#555555;stroke-width:0.8;" x="163.930211" xlink:href="#mcbe9268878" y="243.2"/>
      </g>
     </g>
     <g id="text_2">
      <!-- 20 -->
      <g style="fill:#555555;" transform="translate(157.567711 257.798437)scale(0.1 -0.1)">
       <defs>
        <path d="M 1228 531 
L 3431 531 
L 3431 0 
L 469 0 
L 469 531 
Q 828 903 1448 1529 
Q 2069 2156 2228 2338 
Q 2531 2678 2651 2914 
Q 2772 3150 2772 3378 
Q 2772 3750 2511 3984 
Q 2250 4219 1831 4219 
Q 1534 4219 1204 4116 
Q 875 4013 500 3803 
L 500 4441 
Q 881 4594 1212 4672 
Q 1544 4750 1819 4750 
Q 2544 4750 2975 4387 
Q 3406 4025 3406 3419 
Q 3406 3131 3298 2873 
Q 3191 2616 2906 2266 
Q 2828 2175 2409 1742 
Q 1991 1309 1228 531 
z
" id="DejaVuSans-32" transform="scale(0.015625)"/>
       </defs>
       <use xlink:href="#DejaVuSans-32"/>
       <use x="63.623047" xlink:href="#DejaVuSans-30"/>
      </g>
     </g>
    </g>
    <g id="xtick_3">
     <g id="line2d_5">
      <path clip-path="url(#pedde16815f)" d="M 258.402204 243.2 
L 258.402204 10.8 
" style="fill:none;stroke:#ffffff;stroke-linecap:square;stroke-width:0.8;"/>
     </g>
     <g id="line2d_6">
      <g>
       <use style="fill:#555555;stroke:#555555;stroke-width:0.8;" x="258.402204" xlink:href="#mcbe9268878" y="243.2"/>
      </g>
     </g>
     <g id="text_3">
      <!-- 40 -->
      <g style="fill:#555555;" transform="translate(252.039704 257.798437)scale(0.1 -0.1)">
       <defs>
        <path d="M 2419 4116 
L 825 1625 
L 2419 1625 
L 2419 4116 
z
M 2253 4666 
L 3047 4666 
L 3047 1625 
L 3713 1625 
L 3713 1100 
L 3047 1100 
L 3047 0 
L 2419 0 
L 2419 1100 
L 313 1100 
L 313 1709 
L 2253 4666 
z
" id="DejaVuSans-34" transform="scale(0.015625)"/>
       </defs>
       <use xlink:href="#DejaVuSans-34"/>
       <use x="63.623047" xlink:href="#DejaVuSans-30"/>
      </g>
     </g>
    </g>
    <g id="xtick_4">
     <g id="line2d_7">
      <path clip-path="url(#pedde16815f)" d="M 352.874197 243.2 
L 352.874197 10.8 
" style="fill:none;stroke:#ffffff;stroke-linecap:square;stroke-width:0.8;"/>
     </g>
     <g id="line2d_8">
      <g>
       <use style="fill:#555555;stroke:#555555;stroke-width:0.8;" x="352.874197" xlink:href="#mcbe9268878" y="243.2"/>
      </g>
     </g>
     <g id="text_4">
      <!-- 60 -->
      <g style="fill:#555555;" transform="translate(346.511697 257.798437)scale(0.1 -0.1)">
       <defs>
        <path d="M 2113 2584 
Q 1688 2584 1439 2293 
Q 1191 2003 1191 1497 
Q 1191 994 1439 701 
Q 1688 409 2113 409 
Q 2538 409 2786 701 
Q 3034 994 3034 1497 
Q 3034 2003 2786 2293 
Q 2538 2584 2113 2584 
z
M 3366 4563 
L 3366 3988 
Q 3128 4100 2886 4159 
Q 2644 4219 2406 4219 
Q 1781 4219 1451 3797 
Q 1122 3375 1075 2522 
Q 1259 2794 1537 2939 
Q 1816 3084 2150 3084 
Q 2853 3084 3261 2657 
Q 3669 2231 3669 1497 
Q 3669 778 3244 343 
Q 2819 -91 2113 -91 
Q 1303 -91 875 529 
Q 447 1150 447 2328 
Q 447 3434 972 4092 
Q 1497 4750 2381 4750 
Q 2619 4750 2861 4703 
Q 3103 4656 3366 4563 
z
" id="DejaVuSans-36" transform="scale(0.015625)"/>
       </defs>
       <use xlink:href="#DejaVuSans-36"/>
       <use x="63.623047" xlink:href="#DejaVuSans-30"/>
      </g>
     </g>
    </g>
    <g id="xtick_5">
     <g id="line2d_9">
      <path clip-path="url(#pedde16815f)" d="M 447.346189 243.2 
L 447.346189 10.8 
" style="fill:none;stroke:#ffffff;stroke-linecap:square;stroke-width:0.8;"/>
     </g>
     <g id="line2d_10">
      <g>
       <use style="fill:#555555;stroke:#555555;stroke-width:0.8;" x="447.346189" xlink:href="#mcbe9268878" y="243.2"/>
      </g>
     </g>
     <g id="text_5">
      <!-- 80 -->
      <g style="fill:#555555;" transform="translate(440.983689 257.798437)scale(0.1 -0.1)">
       <defs>
        <path d="M 2034 2216 
Q 1584 2216 1326 1975 
Q 1069 1734 1069 1313 
Q 1069 891 1326 650 
Q 1584 409 2034 409 
Q 2484 409 2743 651 
Q 3003 894 3003 1313 
Q 3003 1734 2745 1975 
Q 2488 2216 2034 2216 
z
M 1403 2484 
Q 997 2584 770 2862 
Q 544 3141 544 3541 
Q 544 4100 942 4425 
Q 1341 4750 2034 4750 
Q 2731 4750 3128 4425 
Q 3525 4100 3525 3541 
Q 3525 3141 3298 2862 
Q 3072 2584 2669 2484 
Q 3125 2378 3379 2068 
Q 3634 1759 3634 1313 
Q 3634 634 3220 271 
Q 2806 -91 2034 -91 
Q 1263 -91 848 271 
Q 434 634 434 1313 
Q 434 1759 690 2068 
Q 947 2378 1403 2484 
z
M 1172 3481 
Q 1172 3119 1398 2916 
Q 1625 2713 2034 2713 
Q 2441 2713 2670 2916 
Q 2900 3119 2900 3481 
Q 2900 3844 2670 4047 
Q 2441 4250 2034 4250 
Q 1625 4250 1398 4047 
Q 1172 3844 1172 3481 
z
" id="DejaVuSans-38" transform="scale(0.015625)"/>
       </defs>
       <use xlink:href="#DejaVuSans-38"/>
       <use x="63.623047" xlink:href="#DejaVuSans-30"/>
      </g>
     </g>
    </g>
    <g id="xtick_6">
     <g id="line2d_11">
      <path clip-path="url(#pedde16815f)" d="M 541.818182 243.2 
L 541.818182 10.8 
" style="fill:none;stroke:#ffffff;stroke-linecap:square;stroke-width:0.8;"/>
     </g>
     <g id="line2d_12">
      <g>
       <use style="fill:#555555;stroke:#555555;stroke-width:0.8;" x="541.818182" xlink:href="#mcbe9268878" y="243.2"/>
      </g>
     </g>
     <g id="text_6">
      <!-- 100 -->
      <g style="fill:#555555;" transform="translate(532.274432 257.798437)scale(0.1 -0.1)">
       <defs>
        <path d="M 794 531 
L 1825 531 
L 1825 4091 
L 703 3866 
L 703 4441 
L 1819 4666 
L 2450 4666 
L 2450 531 
L 3481 531 
L 3481 0 
L 794 0 
L 794 531 
z
" id="DejaVuSans-31" transform="scale(0.015625)"/>
       </defs>
       <use xlink:href="#DejaVuSans-31"/>
       <use x="63.623047" xlink:href="#DejaVuSans-30"/>
       <use x="127.246094" xlink:href="#DejaVuSans-30"/>
      </g>
     </g>
    </g>
    <g id="text_7">
     <!-- Epoch number -->
     <g style="fill:#555555;" transform="translate(264.303125 272.99625)scale(0.12 -0.12)">
      <defs>
       <path d="M 628 4666 
L 3578 4666 
L 3578 4134 
L 1259 4134 
L 1259 2753 
L 3481 2753 
L 3481 2222 
L 1259 2222 
L 1259 531 
L 3634 531 
L 3634 0 
L 628 0 
L 628 4666 
z
" id="DejaVuSans-45" transform="scale(0.015625)"/>
       <path d="M 1159 525 
L 1159 -1331 
L 581 -1331 
L 581 3500 
L 1159 3500 
L 1159 2969 
Q 1341 3281 1617 3432 
Q 1894 3584 2278 3584 
Q 2916 3584 3314 3078 
Q 3713 2572 3713 1747 
Q 3713 922 3314 415 
Q 2916 -91 2278 -91 
Q 1894 -91 1617 61 
Q 1341 213 1159 525 
z
M 3116 1747 
Q 3116 2381 2855 2742 
Q 2594 3103 2138 3103 
Q 1681 3103 1420 2742 
Q 1159 2381 1159 1747 
Q 1159 1113 1420 752 
Q 1681 391 2138 391 
Q 2594 391 2855 752 
Q 3116 1113 3116 1747 
z
" id="DejaVuSans-70" transform="scale(0.015625)"/>
       <path d="M 1959 3097 
Q 1497 3097 1228 2736 
Q 959 2375 959 1747 
Q 959 1119 1226 758 
Q 1494 397 1959 397 
Q 2419 397 2687 759 
Q 2956 1122 2956 1747 
Q 2956 2369 2687 2733 
Q 2419 3097 1959 3097 
z
M 1959 3584 
Q 2709 3584 3137 3096 
Q 3566 2609 3566 1747 
Q 3566 888 3137 398 
Q 2709 -91 1959 -91 
Q 1206 -91 779 398 
Q 353 888 353 1747 
Q 353 2609 779 3096 
Q 1206 3584 1959 3584 
z
" id="DejaVuSans-6f" transform="scale(0.015625)"/>
       <path d="M 3122 3366 
L 3122 2828 
Q 2878 2963 2633 3030 
Q 2388 3097 2138 3097 
Q 1578 3097 1268 2742 
Q 959 2388 959 1747 
Q 959 1106 1268 751 
Q 1578 397 2138 397 
Q 2388 397 2633 464 
Q 2878 531 3122 666 
L 3122 134 
Q 2881 22 2623 -34 
Q 2366 -91 2075 -91 
Q 1284 -91 818 406 
Q 353 903 353 1747 
Q 353 2603 823 3093 
Q 1294 3584 2113 3584 
Q 2378 3584 2631 3529 
Q 2884 3475 3122 3366 
z
" id="DejaVuSans-63" transform="scale(0.015625)"/>
       <path d="M 3513 2113 
L 3513 0 
L 2938 0 
L 2938 2094 
Q 2938 2591 2744 2837 
Q 2550 3084 2163 3084 
Q 1697 3084 1428 2787 
Q 1159 2491 1159 1978 
L 1159 0 
L 581 0 
L 581 4863 
L 1159 4863 
L 1159 2956 
Q 1366 3272 1645 3428 
Q 1925 3584 2291 3584 
Q 2894 3584 3203 3211 
Q 3513 2838 3513 2113 
z
" id="DejaVuSans-68" transform="scale(0.015625)"/>
       <path id="DejaVuSans-20" transform="scale(0.015625)"/>
       <path d="M 3513 2113 
L 3513 0 
L 2938 0 
L 2938 2094 
Q 2938 2591 2744 2837 
Q 2550 3084 2163 3084 
Q 1697 3084 1428 2787 
Q 1159 2491 1159 1978 
L 1159 0 
L 581 0 
L 581 3500 
L 1159 3500 
L 1159 2956 
Q 1366 3272 1645 3428 
Q 1925 3584 2291 3584 
Q 2894 3584 3203 3211 
Q 3513 2838 3513 2113 
z
" id="DejaVuSans-6e" transform="scale(0.015625)"/>
       <path d="M 544 1381 
L 544 3500 
L 1119 3500 
L 1119 1403 
Q 1119 906 1312 657 
Q 1506 409 1894 409 
Q 2359 409 2629 706 
Q 2900 1003 2900 1516 
L 2900 3500 
L 3475 3500 
L 3475 0 
L 2900 0 
L 2900 538 
Q 2691 219 2414 64 
Q 2138 -91 1772 -91 
Q 1169 -91 856 284 
Q 544 659 544 1381 
z
M 1991 3584 
L 1991 3584 
z
" id="DejaVuSans-75" transform="scale(0.015625)"/>
       <path d="M 3328 2828 
Q 3544 3216 3844 3400 
Q 4144 3584 4550 3584 
Q 5097 3584 5394 3201 
Q 5691 2819 5691 2113 
L 5691 0 
L 5113 0 
L 5113 2094 
Q 5113 2597 4934 2840 
Q 4756 3084 4391 3084 
Q 3944 3084 3684 2787 
Q 3425 2491 3425 1978 
L 3425 0 
L 2847 0 
L 2847 2094 
Q 2847 2600 2669 2842 
Q 2491 3084 2119 3084 
Q 1678 3084 1418 2786 
Q 1159 2488 1159 1978 
L 1159 0 
L 581 0 
L 581 3500 
L 1159 3500 
L 1159 2956 
Q 1356 3278 1631 3431 
Q 1906 3584 2284 3584 
Q 2666 3584 2933 3390 
Q 3200 3197 3328 2828 
z
" id="DejaVuSans-6d" transform="scale(0.015625)"/>
       <path d="M 3116 1747 
Q 3116 2381 2855 2742 
Q 2594 3103 2138 3103 
Q 1681 3103 1420 2742 
Q 1159 2381 1159 1747 
Q 1159 1113 1420 752 
Q 1681 391 2138 391 
Q 2594 391 2855 752 
Q 3116 1113 3116 1747 
z
M 1159 2969 
Q 1341 3281 1617 3432 
Q 1894 3584 2278 3584 
Q 2916 3584 3314 3078 
Q 3713 2572 3713 1747 
Q 3713 922 3314 415 
Q 2916 -91 2278 -91 
Q 1894 -91 1617 61 
Q 1341 213 1159 525 
L 1159 0 
L 581 0 
L 581 4863 
L 1159 4863 
L 1159 2969 
z
" id="DejaVuSans-62" transform="scale(0.015625)"/>
       <path d="M 3597 1894 
L 3597 1613 
L 953 1613 
Q 991 1019 1311 708 
Q 1631 397 2203 397 
Q 2534 397 2845 478 
Q 3156 559 3463 722 
L 3463 178 
Q 3153 47 2828 -22 
Q 2503 -91 2169 -91 
Q 1331 -91 842 396 
Q 353 884 353 1716 
Q 353 2575 817 3079 
Q 1281 3584 2069 3584 
Q 2775 3584 3186 3129 
Q 3597 2675 3597 1894 
z
M 3022 2063 
Q 3016 2534 2758 2815 
Q 2500 3097 2075 3097 
Q 1594 3097 1305 2825 
Q 1016 2553 972 2059 
L 3022 2063 
z
" id="DejaVuSans-65" transform="scale(0.015625)"/>
       <path d="M 2631 2963 
Q 2534 3019 2420 3045 
Q 2306 3072 2169 3072 
Q 1681 3072 1420 2755 
Q 1159 2438 1159 1844 
L 1159 0 
L 581 0 
L 581 3500 
L 1159 3500 
L 1159 2956 
Q 1341 3275 1631 3429 
Q 1922 3584 2338 3584 
Q 2397 3584 2469 3576 
Q 2541 3569 2628 3553 
L 2631 2963 
z
" id="DejaVuSans-72" transform="scale(0.015625)"/>
      </defs>
      <use xlink:href="#DejaVuSans-45"/>
      <use x="63.183594" xlink:href="#DejaVuSans-70"/>
      <use x="126.660156" xlink:href="#DejaVuSans-6f"/>
      <use x="187.841797" xlink:href="#DejaVuSans-63"/>
      <use x="242.822266" xlink:href="#DejaVuSans-68"/>
      <use x="306.201172" xlink:href="#DejaVuSans-20"/>
      <use x="337.988281" xlink:href="#DejaVuSans-6e"/>
      <use x="401.367188" xlink:href="#DejaVuSans-75"/>
      <use x="464.746094" xlink:href="#DejaVuSans-6d"/>
      <use x="562.158203" xlink:href="#DejaVuSans-62"/>
      <use x="625.634766" xlink:href="#DejaVuSans-65"/>
      <use x="687.158203" xlink:href="#DejaVuSans-72"/>
     </g>
    </g>
   </g>
   <g id="matplotlib.axis_2">
    <g id="ytick_1">
     <g id="line2d_13">
      <path clip-path="url(#pedde16815f)" d="M 50.8 223.534535 
L 565.2 223.534535 
" style="fill:none;stroke:#ffffff;stroke-linecap:square;stroke-width:0.8;"/>
     </g>
     <g id="line2d_14">
      <defs>
       <path d="M 0 0 
L -3.5 0 
" id="m7729ff80d2" style="stroke:#555555;stroke-width:0.8;"/>
      </defs>
      <g>
       <use style="fill:#555555;stroke:#555555;stroke-width:0.8;" x="50.8" xlink:href="#m7729ff80d2" y="223.534535"/>
      </g>
     </g>
     <g id="text_8">
      <!-- 0.2 -->
      <g style="fill:#555555;" transform="translate(27.896875 227.333754)scale(0.1 -0.1)">
       <defs>
        <path d="M 684 794 
L 1344 794 
L 1344 0 
L 684 0 
L 684 794 
z
" id="DejaVuSans-2e" transform="scale(0.015625)"/>
       </defs>
       <use xlink:href="#DejaVuSans-30"/>
       <use x="63.623047" xlink:href="#DejaVuSans-2e"/>
       <use x="95.410156" xlink:href="#DejaVuSans-32"/>
      </g>
     </g>
    </g>
    <g id="ytick_2">
     <g id="line2d_15">
      <path clip-path="url(#pedde16815f)" d="M 50.8 184.760011 
L 565.2 184.760011 
" style="fill:none;stroke:#ffffff;stroke-linecap:square;stroke-width:0.8;"/>
     </g>
     <g id="line2d_16">
      <g>
       <use style="fill:#555555;stroke:#555555;stroke-width:0.8;" x="50.8" xlink:href="#m7729ff80d2" y="184.760011"/>
      </g>
     </g>
     <g id="text_9">
      <!-- 0.4 -->
      <g style="fill:#555555;" transform="translate(27.896875 188.55923)scale(0.1 -0.1)">
       <use xlink:href="#DejaVuSans-30"/>
       <use x="63.623047" xlink:href="#DejaVuSans-2e"/>
       <use x="95.410156" xlink:href="#DejaVuSans-34"/>
      </g>
     </g>
    </g>
    <g id="ytick_3">
     <g id="line2d_17">
      <path clip-path="url(#pedde16815f)" d="M 50.8 145.985487 
L 565.2 145.985487 
" style="fill:none;stroke:#ffffff;stroke-linecap:square;stroke-width:0.8;"/>
     </g>
     <g id="line2d_18">
      <g>
       <use style="fill:#555555;stroke:#555555;stroke-width:0.8;" x="50.8" xlink:href="#m7729ff80d2" y="145.985487"/>
      </g>
     </g>
     <g id="text_10">
      <!-- 0.6 -->
      <g style="fill:#555555;" transform="translate(27.896875 149.784705)scale(0.1 -0.1)">
       <use xlink:href="#DejaVuSans-30"/>
       <use x="63.623047" xlink:href="#DejaVuSans-2e"/>
       <use x="95.410156" xlink:href="#DejaVuSans-36"/>
      </g>
     </g>
    </g>
    <g id="ytick_4">
     <g id="line2d_19">
      <path clip-path="url(#pedde16815f)" d="M 50.8 107.210962 
L 565.2 107.210962 
" style="fill:none;stroke:#ffffff;stroke-linecap:square;stroke-width:0.8;"/>
     </g>
     <g id="line2d_20">
      <g>
       <use style="fill:#555555;stroke:#555555;stroke-width:0.8;" x="50.8" xlink:href="#m7729ff80d2" y="107.210962"/>
      </g>
     </g>
     <g id="text_11">
      <!-- 0.8 -->
      <g style="fill:#555555;" transform="translate(27.896875 111.010181)scale(0.1 -0.1)">
       <use xlink:href="#DejaVuSans-30"/>
       <use x="63.623047" xlink:href="#DejaVuSans-2e"/>
       <use x="95.410156" xlink:href="#DejaVuSans-38"/>
      </g>
     </g>
    </g>
    <g id="ytick_5">
     <g id="line2d_21">
      <path clip-path="url(#pedde16815f)" d="M 50.8 68.436438 
L 565.2 68.436438 
" style="fill:none;stroke:#ffffff;stroke-linecap:square;stroke-width:0.8;"/>
     </g>
     <g id="line2d_22">
      <g>
       <use style="fill:#555555;stroke:#555555;stroke-width:0.8;" x="50.8" xlink:href="#m7729ff80d2" y="68.436438"/>
      </g>
     </g>
     <g id="text_12">
      <!-- 1.0 -->
      <g style="fill:#555555;" transform="translate(27.896875 72.235657)scale(0.1 -0.1)">
       <use xlink:href="#DejaVuSans-31"/>
       <use x="63.623047" xlink:href="#DejaVuSans-2e"/>
       <use x="95.410156" xlink:href="#DejaVuSans-30"/>
      </g>
     </g>
    </g>
    <g id="ytick_6">
     <g id="line2d_23">
      <path clip-path="url(#pedde16815f)" d="M 50.8 29.661914 
L 565.2 29.661914 
" style="fill:none;stroke:#ffffff;stroke-linecap:square;stroke-width:0.8;"/>
     </g>
     <g id="line2d_24">
      <g>
       <use style="fill:#555555;stroke:#555555;stroke-width:0.8;" x="50.8" xlink:href="#m7729ff80d2" y="29.661914"/>
      </g>
     </g>
     <g id="text_13">
      <!-- 1.2 -->
      <g style="fill:#555555;" transform="translate(27.896875 33.461133)scale(0.1 -0.1)">
       <use xlink:href="#DejaVuSans-31"/>
       <use x="63.623047" xlink:href="#DejaVuSans-2e"/>
       <use x="95.410156" xlink:href="#DejaVuSans-32"/>
      </g>
     </g>
    </g>
    <g id="text_14">
     <!-- Error -->
     <g style="fill:#555555;" transform="translate(21.40125 141.622187)rotate(-90)scale(0.12 -0.12)">
      <use xlink:href="#DejaVuSans-45"/>
      <use x="63.183594" xlink:href="#DejaVuSans-72"/>
      <use x="102.546875" xlink:href="#DejaVuSans-72"/>
      <use x="141.410156" xlink:href="#DejaVuSans-6f"/>
      <use x="202.591797" xlink:href="#DejaVuSans-72"/>
     </g>
    </g>
   </g>
   <g id="line2d_25">
    <path clip-path="url(#pedde16815f)" d="M 74.181818 23.66829 
L 78.905418 49.771474 
L 83.629017 63.845592 
L 88.352617 75.503933 
L 93.076217 83.204844 
L 97.799816 90.958547 
L 102.523416 97.248052 
L 107.247016 101.515031 
L 111.970615 104.670962 
L 116.694215 109.193415 
L 121.417815 112.202691 
L 126.141414 115.733351 
L 130.865014 116.296744 
L 135.588613 119.326888 
L 140.312213 121.725356 
L 145.035813 123.937994 
L 149.759412 124.663619 
L 154.483012 126.444727 
L 159.206612 127.634264 
L 163.930211 128.328346 
L 168.653811 130.868717 
L 173.37741 132.465636 
L 178.10101 133.656373 
L 182.82461 133.024722 
L 187.548209 135.309211 
L 192.271809 135.297146 
L 196.995409 136.047563 
L 201.719008 137.186822 
L 206.442608 137.722499 
L 211.166208 136.669309 
L 215.889807 138.670789 
L 220.613407 139.402102 
L 225.337006 139.361655 
L 230.060606 140.26519 
L 234.784206 139.723075 
L 239.507805 141.825858 
L 244.231405 141.480959 
L 248.955005 142.570243 
L 253.678604 142.59342 
L 258.402204 141.958477 
L 263.125803 142.176315 
L 267.849403 144.366862 
L 272.573003 143.339839 
L 277.296602 145.180524 
L 282.020202 145.991751 
L 286.743802 145.975166 
L 291.467401 145.619866 
L 296.191001 146.398981 
L 300.914601 145.903894 
L 305.6382 146.22759 
L 310.3618 147.392248 
L 315.085399 147.541035 
L 319.808999 145.284314 
L 324.532599 147.896962 
L 329.256198 147.341578 
L 333.979798 146.938942 
L 338.703398 148.585524 
L 343.426997 149.130527 
L 348.150597 147.883155 
L 352.874197 147.710676 
L 357.597796 149.616259 
L 362.321396 148.878729 
L 367.044995 149.160998 
L 371.768595 149.070172 
L 376.492195 150.68933 
L 381.215794 150.368508 
L 385.939394 148.506399 
L 390.662994 148.011502 
L 395.386593 150.894653 
L 400.110193 150.047274 
L 404.833792 149.798405 
L 409.557392 150.589707 
L 414.280992 151.794812 
L 419.004591 149.989185 
L 423.728191 151.774025 
L 428.451791 152.171175 
L 433.17539 152.115774 
L 437.89899 151.583632 
L 442.62259 152.743576 
L 447.346189 151.67011 
L 452.069789 152.154351 
L 456.793388 152.478653 
L 461.516988 152.181129 
L 466.240588 153.382715 
L 470.964187 153.252343 
L 475.687787 152.32694 
L 480.411387 152.400427 
L 485.134986 152.760181 
L 489.858586 152.974021 
L 494.582185 151.784484 
L 499.305785 153.379612 
L 504.029385 150.523892 
L 508.752984 152.416647 
L 513.476584 153.499394 
L 518.200184 153.555436 
L 522.923783 154.203681 
L 527.647383 153.247723 
L 532.370983 152.673761 
L 537.094582 153.40145 
L 541.818182 154.207503 
" style="fill:none;stroke:#e24a33;stroke-linecap:square;stroke-width:1.5;"/>
   </g>
   <g id="line2d_26">
    <path clip-path="url(#pedde16815f)" d="M 74.181818 21.363636 
L 78.905418 45.329577 
L 83.629017 58.547496 
L 88.352617 68.67641 
L 93.076217 75.431911 
L 97.799816 82.66714 
L 102.523416 87.978544 
L 107.247016 91.867313 
L 111.970615 94.77259 
L 116.694215 98.699795 
L 121.417815 100.715671 
L 126.141414 103.58323 
L 130.865014 104.926002 
L 135.588613 107.178523 
L 140.312213 109.031103 
L 145.035813 111.373059 
L 149.759412 111.596044 
L 154.483012 112.978476 
L 159.206612 114.097714 
L 163.930211 114.827957 
L 168.653811 116.806965 
L 173.37741 117.94631 
L 178.10101 118.930879 
L 182.82461 117.743391 
L 187.548209 119.896102 
L 192.271809 119.50107 
L 196.995409 120.044432 
L 201.719008 120.315076 
L 206.442608 121.159923 
L 211.166208 120.051763 
L 215.889807 121.350773 
L 220.613407 121.772109 
L 225.337006 121.689285 
L 230.060606 122.162467 
L 234.784206 122.013706 
L 239.507805 123.792165 
L 244.231405 123.349904 
L 248.955005 124.233414 
L 253.678604 123.668435 
L 258.402204 123.696957 
L 263.125803 123.725779 
L 267.849403 124.612864 
L 272.573003 124.256287 
L 277.296602 125.612094 
L 282.020202 126.172725 
L 286.743802 126.06143 
L 291.467401 125.411801 
L 296.191001 126.007024 
L 300.914601 125.740489 
L 305.6382 125.336578 
L 310.3618 126.630896 
L 315.085399 126.071827 
L 319.808999 123.341579 
L 324.532599 126.402806 
L 329.256198 125.620187 
L 333.979798 124.668805 
L 338.703398 126.069425 
L 343.426997 127.05691 
L 348.150597 125.508463 
L 352.874197 124.954926 
L 357.597796 126.710196 
L 362.321396 126.442803 
L 367.044995 125.324989 
L 371.768595 124.833843 
L 376.492195 127.078714 
L 381.215794 126.667899 
L 385.939394 124.245837 
L 390.662994 123.803363 
L 395.386593 125.79369 
L 400.110193 125.823038 
L 404.833792 125.499659 
L 409.557392 125.286121 
L 414.280992 126.299209 
L 419.004591 124.689713 
L 423.728191 125.967364 
L 428.451791 126.56987 
L 433.17539 126.508369 
L 437.89899 125.642152 
L 442.62259 126.144215 
L 447.346189 124.619334 
L 452.069789 125.351604 
L 456.793388 125.434741 
L 461.516988 125.347643 
L 466.240588 126.348874 
L 470.964187 125.610967 
L 475.687787 124.151523 
L 480.411387 124.993495 
L 485.134986 124.748693 
L 489.858586 125.306521 
L 494.582185 123.099504 
L 499.305785 125.645667 
L 504.029385 121.839072 
L 508.752984 123.542334 
L 513.476584 124.7076 
L 518.200184 124.130733 
L 522.923783 125.800338 
L 527.647383 123.738167 
L 532.370983 123.098722 
L 537.094582 123.486587 
L 541.818182 124.450722 
" style="fill:none;stroke:#348abd;stroke-dasharray:5.55,2.4;stroke-dashoffset:0;stroke-width:1.5;"/>
   </g>
   <g id="line2d_27">
    <path clip-path="url(#pedde16815f)" d="M 74.181818 50.852816 
L 78.905418 87.902622 
L 83.629017 108.953721 
L 88.352617 124.372928 
L 93.076217 132.719788 
L 97.799816 138.764525 
L 102.523416 146.28557 
L 107.247016 150.47928 
L 111.970615 153.46177 
L 116.694215 154.297825 
L 121.417815 159.027725 
L 126.141414 160.82233 
L 130.865014 162.375383 
L 135.588613 162.39908 
L 140.312213 165.933721 
L 145.035813 166.086129 
L 149.759412 167.394681 
L 154.483012 168.334531 
L 159.206612 168.841716 
L 163.930211 169.94907 
L 168.653811 171.912065 
L 173.37741 172.809219 
L 178.10101 171.571889 
L 182.82461 172.917743 
L 187.548209 174.137181 
L 192.271809 174.874806 
L 196.995409 174.17716 
L 201.719008 176.449947 
L 206.442608 176.725871 
L 211.166208 174.808825 
L 215.889807 177.721055 
L 220.613407 178.878459 
L 225.337006 179.644921 
L 230.060606 179.023038 
L 234.784206 178.690278 
L 239.507805 179.486963 
L 244.231405 179.847236 
L 248.955005 180.803975 
L 253.678604 182.202938 
L 258.402204 182.011814 
L 263.125803 182.328915 
L 267.849403 183.067186 
L 272.573003 182.448361 
L 277.296602 184.423815 
L 282.020202 182.977333 
L 286.743802 181.956155 
L 291.467401 184.467981 
L 296.191001 185.34562 
L 300.914601 184.617114 
L 305.6382 185.146406 
L 310.3618 186.168551 
L 315.085399 185.111741 
L 319.808999 186.673456 
L 324.532599 185.821702 
L 329.256198 187.481355 
L 333.979798 185.756282 
L 338.703398 187.988483 
L 343.426997 187.025819 
L 348.150597 186.231 
L 352.874197 188.276726 
L 357.597796 189.012168 
L 362.321396 188.683263 
L 367.044995 188.884692 
L 371.768595 189.12894 
L 376.492195 189.43867 
L 381.215794 189.919883 
L 385.939394 188.201991 
L 390.662994 191.015529 
L 395.386593 190.125426 
L 400.110193 189.251769 
L 404.833792 189.541429 
L 409.557392 189.336186 
L 414.280992 190.592825 
L 419.004591 190.23819 
L 423.728191 188.974641 
L 428.451791 190.247656 
L 433.17539 191.25266 
L 437.89899 192.022481 
L 442.62259 192.510331 
L 447.346189 191.077983 
L 452.069789 191.730499 
L 456.793388 191.23816 
L 461.516988 191.461486 
L 466.240588 192.326293 
L 470.964187 191.987819 
L 475.687787 193.881723 
L 480.411387 192.712268 
L 485.134986 192.942575 
L 489.858586 193.718483 
L 494.582185 192.88443 
L 499.305785 193.108907 
L 504.029385 192.51837 
L 508.752984 194.878789 
L 513.476584 193.038418 
L 518.200184 193.220109 
L 522.923783 194.559686 
L 527.647383 195.173467 
L 532.370983 194.991928 
L 537.094582 193.025101 
L 541.818182 195.452042 
" style="fill:none;stroke:#988ed5;stroke-linecap:square;stroke-width:1.5;"/>
   </g>
   <g id="line2d_28">
    <path clip-path="url(#pedde16815f)" d="M 74.181818 49.3061 
L 78.905418 82.363863 
L 83.629017 101.586552 
L 88.352617 115.872377 
L 93.076217 123.076806 
L 97.799816 127.534905 
L 102.523416 134.188266 
L 107.247016 137.21928 
L 111.970615 138.374701 
L 116.694215 138.924158 
L 121.417815 142.760607 
L 126.141414 143.025437 
L 130.865014 143.152894 
L 135.588613 142.491353 
L 140.312213 145.673905 
L 145.035813 144.47301 
L 149.759412 145.210917 
L 154.483012 145.521045 
L 159.206612 145.127094 
L 163.930211 146.316792 
L 168.653811 147.111528 
L 173.37741 146.865138 
L 178.10101 145.571801 
L 182.82461 146.303461 
L 187.548209 146.100421 
L 192.271809 146.291516 
L 196.995409 144.862065 
L 201.719008 147.23005 
L 206.442608 146.487551 
L 211.166208 143.854081 
L 215.889807 146.635095 
L 220.613407 147.317251 
L 225.337006 147.118831 
L 230.060606 146.457378 
L 234.784206 145.122916 
L 239.507805 144.712034 
L 244.231405 144.960423 
L 248.955005 145.255354 
L 253.678604 147.292603 
L 258.402204 145.583988 
L 263.125803 145.275792 
L 267.849403 145.576787 
L 272.573003 145.203908 
L 277.296602 146.518192 
L 282.020202 144.965594 
L 286.743802 142.433161 
L 291.467401 144.556035 
L 296.191001 145.672961 
L 300.914601 144.5831 
L 305.6382 144.156239 
L 310.3618 144.215085 
L 315.085399 142.842994 
L 319.808999 143.522974 
L 324.532599 142.843513 
L 329.256198 143.726981 
L 333.979798 140.736578 
L 338.703398 143.176254 
L 343.426997 142.556637 
L 348.150597 140.4894 
L 352.874197 142.272997 
L 357.597796 142.54482 
L 362.321396 141.538472 
L 367.044995 140.360244 
L 371.768595 141.699818 
L 376.492195 140.908566 
L 381.215794 140.239952 
L 385.939394 138.626962 
L 390.662994 141.319492 
L 395.386593 139.653073 
L 400.110193 138.305303 
L 404.833792 138.557654 
L 409.557392 137.737273 
L 414.280992 138.100901 
L 419.004591 137.000648 
L 423.728191 135.951525 
L 428.451791 137.05387 
L 433.17539 137.983661 
L 437.89899 137.658629 
L 442.62259 137.99549 
L 447.346189 135.365227 
L 452.069789 136.17369 
L 456.793388 135.245899 
L 461.516988 135.877603 
L 466.240588 134.903209 
L 470.964187 134.851511 
L 475.687787 137.260181 
L 480.411387 135.069362 
L 485.134986 134.706558 
L 489.858586 134.920632 
L 494.582185 133.247192 
L 499.305785 133.971473 
L 504.029385 132.772972 
L 508.752984 133.41033 
L 513.476584 132.351933 
L 518.200184 131.9327 
L 522.923783 133.878942 
L 527.647383 133.164147 
L 532.370983 132.107458 
L 537.094582 129.937436 
L 541.818182 132.461339 
" style="fill:none;stroke:#777777;stroke-dasharray:5.55,2.4;stroke-dashoffset:0;stroke-width:1.5;"/>
   </g>
   <g id="line2d_29">
    <path clip-path="url(#pedde16815f)" d="M 74.181818 85.561421 
L 78.905418 125.850364 
L 83.629017 145.961659 
L 88.352617 155.29071 
L 93.076217 161.332234 
L 97.799816 170.344176 
L 102.523416 174.838539 
L 107.247016 179.281895 
L 111.970615 182.639386 
L 116.694215 184.611335 
L 121.417815 187.401335 
L 126.141414 189.308585 
L 130.865014 190.450548 
L 135.588613 192.756433 
L 140.312213 194.708487 
L 145.035813 196.88443 
L 149.759412 195.091418 
L 154.483012 198.10324 
L 159.206612 198.974952 
L 163.930211 199.915298 
L 168.653811 201.785251 
L 173.37741 201.415613 
L 178.10101 203.340197 
L 182.82461 204.400026 
L 187.548209 205.604215 
L 192.271809 205.581649 
L 196.995409 208.024735 
L 201.719008 207.802516 
L 206.442608 208.846146 
L 211.166208 209.810863 
L 215.889807 210.568069 
L 220.613407 209.982869 
L 225.337006 210.633496 
L 230.060606 210.926275 
L 234.784206 212.881196 
L 239.507805 213.955439 
L 244.231405 213.38988 
L 248.955005 214.674336 
L 253.678604 213.468699 
L 258.402204 214.929067 
L 263.125803 215.037634 
L 267.849403 217.507553 
L 272.573003 217.417887 
L 277.296602 217.719067 
L 282.020202 218.172035 
L 286.743802 218.058845 
L 291.467401 218.940461 
L 296.191001 216.978043 
L 300.914601 216.821608 
L 305.6382 219.608761 
L 310.3618 219.684451 
L 315.085399 219.568328 
L 319.808999 221.344059 
L 324.532599 220.836994 
L 329.256198 221.611515 
L 333.979798 222.5011 
L 338.703398 221.706547 
L 343.426997 222.473413 
L 348.150597 221.827129 
L 352.874197 223.238304 
L 357.597796 222.081444 
L 362.321396 222.602833 
L 367.044995 223.94485 
L 371.768595 224.173045 
L 376.492195 225.28331 
L 381.215794 223.167375 
L 385.939394 225.559988 
L 390.662994 225.859714 
L 395.386593 226.091569 
L 400.110193 224.291618 
L 404.833792 227.073107 
L 409.557392 227.44662 
L 414.280992 226.635831 
L 419.004591 226.820626 
L 423.728191 226.658887 
L 428.451791 226.800548 
L 433.17539 227.540302 
L 437.89899 227.600615 
L 442.62259 227.683821 
L 447.346189 228.026811 
L 452.069789 226.569111 
L 456.793388 227.73154 
L 461.516988 227.084558 
L 466.240588 228.787501 
L 470.964187 229.863723 
L 475.687787 228.878126 
L 480.411387 228.498579 
L 485.134986 229.780065 
L 489.858586 230.500361 
L 494.582185 229.992365 
L 499.305785 229.669711 
L 504.029385 230.475934 
L 508.752984 232.01387 
L 513.476584 231.50591 
L 518.200184 230.903489 
L 522.923783 232.636364 
L 527.647383 230.766189 
L 532.370983 231.695294 
L 537.094582 232.481799 
L 541.818182 231.911927 
" style="fill:none;stroke:#fbc15e;stroke-linecap:square;stroke-width:1.5;"/>
   </g>
   <g id="line2d_30">
    <path clip-path="url(#pedde16815f)" d="M 74.181818 82.053532 
L 78.905418 119.33901 
L 83.629017 136.518662 
L 88.352617 144.110592 
L 93.076217 147.528671 
L 97.799816 154.836496 
L 102.523416 157.102027 
L 107.247016 159.786082 
L 111.970615 161.116407 
L 116.694215 160.381623 
L 121.417815 161.978895 
L 126.141414 162.469027 
L 130.865014 161.464519 
L 135.588613 161.301865 
L 140.312213 162.007676 
L 145.035813 162.23363 
L 149.759412 157.829084 
L 154.483012 159.641291 
L 159.206612 158.930316 
L 163.930211 157.147029 
L 168.653811 158.223687 
L 173.37741 155.125082 
L 178.10101 155.094619 
L 182.82461 156.116273 
L 187.548209 155.465226 
L 192.271809 153.626241 
L 196.995409 154.366627 
L 201.719008 153.720527 
L 206.442608 152.470163 
L 211.166208 152.076085 
L 215.889807 151.107199 
L 220.613407 149.569599 
L 225.337006 148.414432 
L 230.060606 146.899009 
L 234.784206 147.060167 
L 239.507805 147.175197 
L 244.231405 145.398406 
L 248.955005 144.86933 
L 253.678604 141.19187 
L 258.402204 142.765217 
L 263.125803 138.481224 
L 267.849403 141.280633 
L 272.573003 139.94076 
L 277.296602 139.057935 
L 282.020202 137.281492 
L 286.743802 135.749314 
L 291.467401 136.077174 
L 296.191001 131.031891 
L 300.914601 130.634346 
L 305.6382 132.035744 
L 310.3618 130.725738 
L 315.085399 128.579149 
L 319.808999 129.317832 
L 324.532599 125.735906 
L 329.256198 126.295671 
L 333.979798 126.702677 
L 338.703398 124.112728 
L 343.426997 122.61776 
L 348.150597 120.637054 
L 352.874197 122.400399 
L 357.597796 117.392772 
L 362.321396 117.872305 
L 367.044995 117.272792 
L 371.768595 113.86025 
L 376.492195 115.873882 
L 381.215794 109.849054 
L 385.939394 113.376304 
L 390.662994 110.921424 
L 395.386593 110.89716 
L 400.110193 105.441562 
L 404.833792 108.146134 
L 409.557392 107.968198 
L 414.280992 104.269034 
L 419.004591 104.415571 
L 423.728191 102.460596 
L 428.451791 101.326842 
L 433.17539 99.558829 
L 437.89899 99.671824 
L 442.62259 97.97705 
L 447.346189 97.532856 
L 452.069789 93.954234 
L 456.793388 93.432859 
L 461.516988 88.26946 
L 466.240588 91.847078 
L 470.964187 91.23075 
L 475.687787 88.869803 
L 480.411387 84.08637 
L 485.134986 83.259006 
L 489.858586 83.916002 
L 494.582185 83.529639 
L 499.305785 80.434406 
L 504.029385 79.414019 
L 508.752984 82.757189 
L 513.476584 77.176124 
L 518.200184 77.421419 
L 522.923783 79.361129 
L 527.647383 76.92358 
L 532.370983 73.471099 
L 537.094582 73.001529 
L 541.818182 71.982118 
" style="fill:none;stroke:#8eba42;stroke-dasharray:5.55,2.4;stroke-dashoffset:0;stroke-width:1.5;"/>
   </g>
   <g id="patch_3">
    <path d="M 50.8 243.2 
L 50.8 10.8 
" style="fill:none;stroke:#ffffff;stroke-linecap:square;stroke-linejoin:miter;"/>
   </g>
   <g id="patch_4">
    <path d="M 565.2 243.2 
L 565.2 10.8 
" style="fill:none;stroke:#ffffff;stroke-linecap:square;stroke-linejoin:miter;"/>
   </g>
   <g id="patch_5">
    <path d="M 50.8 243.2 
L 565.2 243.2 
" style="fill:none;stroke:#ffffff;stroke-linecap:square;stroke-linejoin:miter;"/>
   </g>
   <g id="patch_6">
    <path d="M 50.8 10.8 
L 565.2 10.8 
" style="fill:none;stroke:#ffffff;stroke-linecap:square;stroke-linejoin:miter;"/>
   </g>
   <g id="legend_1">
    <g id="patch_7">
     <path d="M 444.617187 106.86875 
L 558.2 106.86875 
Q 560.2 106.86875 560.2 104.86875 
L 560.2 17.8 
Q 560.2 15.8 558.2 15.8 
L 444.617187 15.8 
Q 442.617187 15.8 442.617187 17.8 
L 442.617187 104.86875 
Q 442.617187 106.86875 444.617187 106.86875 
z
" style="fill:#e5e5e5;opacity:0.8;stroke:#cccccc;stroke-linejoin:miter;stroke-width:0.5;"/>
    </g>
    <g id="line2d_31">
     <path d="M 446.617187 23.898438 
L 466.617187 23.898438 
" style="fill:none;stroke:#e24a33;stroke-linecap:square;stroke-width:1.5;"/>
    </g>
    <g id="line2d_32"/>
    <g id="text_15">
     <!-- width 32(train) -->
     <g transform="translate(474.617187 27.398438)scale(0.1 -0.1)">
      <defs>
       <path d="M 269 3500 
L 844 3500 
L 1563 769 
L 2278 3500 
L 2956 3500 
L 3675 769 
L 4391 3500 
L 4966 3500 
L 4050 0 
L 3372 0 
L 2619 2869 
L 1863 0 
L 1184 0 
L 269 3500 
z
" id="DejaVuSans-77" transform="scale(0.015625)"/>
       <path d="M 603 3500 
L 1178 3500 
L 1178 0 
L 603 0 
L 603 3500 
z
M 603 4863 
L 1178 4863 
L 1178 4134 
L 603 4134 
L 603 4863 
z
" id="DejaVuSans-69" transform="scale(0.015625)"/>
       <path d="M 2906 2969 
L 2906 4863 
L 3481 4863 
L 3481 0 
L 2906 0 
L 2906 525 
Q 2725 213 2448 61 
Q 2172 -91 1784 -91 
Q 1150 -91 751 415 
Q 353 922 353 1747 
Q 353 2572 751 3078 
Q 1150 3584 1784 3584 
Q 2172 3584 2448 3432 
Q 2725 3281 2906 2969 
z
M 947 1747 
Q 947 1113 1208 752 
Q 1469 391 1925 391 
Q 2381 391 2643 752 
Q 2906 1113 2906 1747 
Q 2906 2381 2643 2742 
Q 2381 3103 1925 3103 
Q 1469 3103 1208 2742 
Q 947 2381 947 1747 
z
" id="DejaVuSans-64" transform="scale(0.015625)"/>
       <path d="M 1172 4494 
L 1172 3500 
L 2356 3500 
L 2356 3053 
L 1172 3053 
L 1172 1153 
Q 1172 725 1289 603 
Q 1406 481 1766 481 
L 2356 481 
L 2356 0 
L 1766 0 
Q 1100 0 847 248 
Q 594 497 594 1153 
L 594 3053 
L 172 3053 
L 172 3500 
L 594 3500 
L 594 4494 
L 1172 4494 
z
" id="DejaVuSans-74" transform="scale(0.015625)"/>
       <path d="M 2597 2516 
Q 3050 2419 3304 2112 
Q 3559 1806 3559 1356 
Q 3559 666 3084 287 
Q 2609 -91 1734 -91 
Q 1441 -91 1130 -33 
Q 819 25 488 141 
L 488 750 
Q 750 597 1062 519 
Q 1375 441 1716 441 
Q 2309 441 2620 675 
Q 2931 909 2931 1356 
Q 2931 1769 2642 2001 
Q 2353 2234 1838 2234 
L 1294 2234 
L 1294 2753 
L 1863 2753 
Q 2328 2753 2575 2939 
Q 2822 3125 2822 3475 
Q 2822 3834 2567 4026 
Q 2313 4219 1838 4219 
Q 1578 4219 1281 4162 
Q 984 4106 628 3988 
L 628 4550 
Q 988 4650 1302 4700 
Q 1616 4750 1894 4750 
Q 2613 4750 3031 4423 
Q 3450 4097 3450 3541 
Q 3450 3153 3228 2886 
Q 3006 2619 2597 2516 
z
" id="DejaVuSans-33" transform="scale(0.015625)"/>
       <path d="M 1984 4856 
Q 1566 4138 1362 3434 
Q 1159 2731 1159 2009 
Q 1159 1288 1364 580 
Q 1569 -128 1984 -844 
L 1484 -844 
Q 1016 -109 783 600 
Q 550 1309 550 2009 
Q 550 2706 781 3412 
Q 1013 4119 1484 4856 
L 1984 4856 
z
" id="DejaVuSans-28" transform="scale(0.015625)"/>
       <path d="M 2194 1759 
Q 1497 1759 1228 1600 
Q 959 1441 959 1056 
Q 959 750 1161 570 
Q 1363 391 1709 391 
Q 2188 391 2477 730 
Q 2766 1069 2766 1631 
L 2766 1759 
L 2194 1759 
z
M 3341 1997 
L 3341 0 
L 2766 0 
L 2766 531 
Q 2569 213 2275 61 
Q 1981 -91 1556 -91 
Q 1019 -91 701 211 
Q 384 513 384 1019 
Q 384 1609 779 1909 
Q 1175 2209 1959 2209 
L 2766 2209 
L 2766 2266 
Q 2766 2663 2505 2880 
Q 2244 3097 1772 3097 
Q 1472 3097 1187 3025 
Q 903 2953 641 2809 
L 641 3341 
Q 956 3463 1253 3523 
Q 1550 3584 1831 3584 
Q 2591 3584 2966 3190 
Q 3341 2797 3341 1997 
z
" id="DejaVuSans-61" transform="scale(0.015625)"/>
       <path d="M 513 4856 
L 1013 4856 
Q 1481 4119 1714 3412 
Q 1947 2706 1947 2009 
Q 1947 1309 1714 600 
Q 1481 -109 1013 -844 
L 513 -844 
Q 928 -128 1133 580 
Q 1338 1288 1338 2009 
Q 1338 2731 1133 3434 
Q 928 4138 513 4856 
z
" id="DejaVuSans-29" transform="scale(0.015625)"/>
      </defs>
      <use xlink:href="#DejaVuSans-77"/>
      <use x="81.787109" xlink:href="#DejaVuSans-69"/>
      <use x="109.570312" xlink:href="#DejaVuSans-64"/>
      <use x="173.046875" xlink:href="#DejaVuSans-74"/>
      <use x="212.255859" xlink:href="#DejaVuSans-68"/>
      <use x="275.634766" xlink:href="#DejaVuSans-20"/>
      <use x="307.421875" xlink:href="#DejaVuSans-33"/>
      <use x="371.044922" xlink:href="#DejaVuSans-32"/>
      <use x="434.667969" xlink:href="#DejaVuSans-28"/>
      <use x="473.681641" xlink:href="#DejaVuSans-74"/>
      <use x="512.890625" xlink:href="#DejaVuSans-72"/>
      <use x="554.003906" xlink:href="#DejaVuSans-61"/>
      <use x="615.283203" xlink:href="#DejaVuSans-69"/>
      <use x="643.066406" xlink:href="#DejaVuSans-6e"/>
      <use x="706.445312" xlink:href="#DejaVuSans-29"/>
     </g>
    </g>
    <g id="line2d_33">
     <path d="M 446.617187 38.576563 
L 466.617187 38.576563 
" style="fill:none;stroke:#348abd;stroke-dasharray:5.55,2.4;stroke-dashoffset:0;stroke-width:1.5;"/>
    </g>
    <g id="line2d_34"/>
    <g id="text_16">
     <!-- width 32(valid) -->
     <g transform="translate(474.617187 42.076563)scale(0.1 -0.1)">
      <defs>
       <path d="M 191 3500 
L 800 3500 
L 1894 563 
L 2988 3500 
L 3597 3500 
L 2284 0 
L 1503 0 
L 191 3500 
z
" id="DejaVuSans-76" transform="scale(0.015625)"/>
       <path d="M 603 4863 
L 1178 4863 
L 1178 0 
L 603 0 
L 603 4863 
z
" id="DejaVuSans-6c" transform="scale(0.015625)"/>
      </defs>
      <use xlink:href="#DejaVuSans-77"/>
      <use x="81.787109" xlink:href="#DejaVuSans-69"/>
      <use x="109.570312" xlink:href="#DejaVuSans-64"/>
      <use x="173.046875" xlink:href="#DejaVuSans-74"/>
      <use x="212.255859" xlink:href="#DejaVuSans-68"/>
      <use x="275.634766" xlink:href="#DejaVuSans-20"/>
      <use x="307.421875" xlink:href="#DejaVuSans-33"/>
      <use x="371.044922" xlink:href="#DejaVuSans-32"/>
      <use x="434.667969" xlink:href="#DejaVuSans-28"/>
      <use x="473.681641" xlink:href="#DejaVuSans-76"/>
      <use x="532.861328" xlink:href="#DejaVuSans-61"/>
      <use x="594.140625" xlink:href="#DejaVuSans-6c"/>
      <use x="621.923828" xlink:href="#DejaVuSans-69"/>
      <use x="649.707031" xlink:href="#DejaVuSans-64"/>
      <use x="713.183594" xlink:href="#DejaVuSans-29"/>
     </g>
    </g>
    <g id="line2d_35">
     <path d="M 446.617187 53.254688 
L 466.617187 53.254688 
" style="fill:none;stroke:#988ed5;stroke-linecap:square;stroke-width:1.5;"/>
    </g>
    <g id="line2d_36"/>
    <g id="text_17">
     <!-- width 64(train) -->
     <g transform="translate(474.617187 56.754688)scale(0.1 -0.1)">
      <use xlink:href="#DejaVuSans-77"/>
      <use x="81.787109" xlink:href="#DejaVuSans-69"/>
      <use x="109.570312" xlink:href="#DejaVuSans-64"/>
      <use x="173.046875" xlink:href="#DejaVuSans-74"/>
      <use x="212.255859" xlink:href="#DejaVuSans-68"/>
      <use x="275.634766" xlink:href="#DejaVuSans-20"/>
      <use x="307.421875" xlink:href="#DejaVuSans-36"/>
      <use x="371.044922" xlink:href="#DejaVuSans-34"/>
      <use x="434.667969" xlink:href="#DejaVuSans-28"/>
      <use x="473.681641" xlink:href="#DejaVuSans-74"/>
      <use x="512.890625" xlink:href="#DejaVuSans-72"/>
      <use x="554.003906" xlink:href="#DejaVuSans-61"/>
      <use x="615.283203" xlink:href="#DejaVuSans-69"/>
      <use x="643.066406" xlink:href="#DejaVuSans-6e"/>
      <use x="706.445312" xlink:href="#DejaVuSans-29"/>
     </g>
    </g>
    <g id="line2d_37">
     <path d="M 446.617187 67.932813 
L 466.617187 67.932813 
" style="fill:none;stroke:#777777;stroke-dasharray:5.55,2.4;stroke-dashoffset:0;stroke-width:1.5;"/>
    </g>
    <g id="line2d_38"/>
    <g id="text_18">
     <!-- width 64(valid) -->
     <g transform="translate(474.617187 71.432813)scale(0.1 -0.1)">
      <use xlink:href="#DejaVuSans-77"/>
      <use x="81.787109" xlink:href="#DejaVuSans-69"/>
      <use x="109.570312" xlink:href="#DejaVuSans-64"/>
      <use x="173.046875" xlink:href="#DejaVuSans-74"/>
      <use x="212.255859" xlink:href="#DejaVuSans-68"/>
      <use x="275.634766" xlink:href="#DejaVuSans-20"/>
      <use x="307.421875" xlink:href="#DejaVuSans-36"/>
      <use x="371.044922" xlink:href="#DejaVuSans-34"/>
      <use x="434.667969" xlink:href="#DejaVuSans-28"/>
      <use x="473.681641" xlink:href="#DejaVuSans-76"/>
      <use x="532.861328" xlink:href="#DejaVuSans-61"/>
      <use x="594.140625" xlink:href="#DejaVuSans-6c"/>
      <use x="621.923828" xlink:href="#DejaVuSans-69"/>
      <use x="649.707031" xlink:href="#DejaVuSans-64"/>
      <use x="713.183594" xlink:href="#DejaVuSans-29"/>
     </g>
    </g>
    <g id="line2d_39">
     <path d="M 446.617187 82.610938 
L 466.617187 82.610938 
" style="fill:none;stroke:#fbc15e;stroke-linecap:square;stroke-width:1.5;"/>
    </g>
    <g id="line2d_40"/>
    <g id="text_19">
     <!-- width 128(train) -->
     <g transform="translate(474.617187 86.110938)scale(0.1 -0.1)">
      <use xlink:href="#DejaVuSans-77"/>
      <use x="81.787109" xlink:href="#DejaVuSans-69"/>
      <use x="109.570312" xlink:href="#DejaVuSans-64"/>
      <use x="173.046875" xlink:href="#DejaVuSans-74"/>
      <use x="212.255859" xlink:href="#DejaVuSans-68"/>
      <use x="275.634766" xlink:href="#DejaVuSans-20"/>
      <use x="307.421875" xlink:href="#DejaVuSans-31"/>
      <use x="371.044922" xlink:href="#DejaVuSans-32"/>
      <use x="434.667969" xlink:href="#DejaVuSans-38"/>
      <use x="498.291016" xlink:href="#DejaVuSans-28"/>
      <use x="537.304688" xlink:href="#DejaVuSans-74"/>
      <use x="576.513672" xlink:href="#DejaVuSans-72"/>
      <use x="617.626953" xlink:href="#DejaVuSans-61"/>
      <use x="678.90625" xlink:href="#DejaVuSans-69"/>
      <use x="706.689453" xlink:href="#DejaVuSans-6e"/>
      <use x="770.068359" xlink:href="#DejaVuSans-29"/>
     </g>
    </g>
    <g id="line2d_41">
     <path d="M 446.617187 97.289063 
L 466.617187 97.289063 
" style="fill:none;stroke:#8eba42;stroke-dasharray:5.55,2.4;stroke-dashoffset:0;stroke-width:1.5;"/>
    </g>
    <g id="line2d_42"/>
    <g id="text_20">
     <!-- width 128(valid) -->
     <g transform="translate(474.617187 100.789063)scale(0.1 -0.1)">
      <use xlink:href="#DejaVuSans-77"/>
      <use x="81.787109" xlink:href="#DejaVuSans-69"/>
      <use x="109.570312" xlink:href="#DejaVuSans-64"/>
      <use x="173.046875" xlink:href="#DejaVuSans-74"/>
      <use x="212.255859" xlink:href="#DejaVuSans-68"/>
      <use x="275.634766" xlink:href="#DejaVuSans-20"/>
      <use x="307.421875" xlink:href="#DejaVuSans-31"/>
      <use x="371.044922" xlink:href="#DejaVuSans-32"/>
      <use x="434.667969" xlink:href="#DejaVuSans-38"/>
      <use x="498.291016" xlink:href="#DejaVuSans-28"/>
      <use x="537.304688" xlink:href="#DejaVuSans-76"/>
      <use x="596.484375" xlink:href="#DejaVuSans-61"/>
      <use x="657.763672" xlink:href="#DejaVuSans-6c"/>
      <use x="685.546875" xlink:href="#DejaVuSans-69"/>
      <use x="713.330078" xlink:href="#DejaVuSans-64"/>
      <use x="776.806641" xlink:href="#DejaVuSans-29"/>
     </g>
    </g>
   </g>
  </g>
 </g>
 <defs>
  <clipPath id="pedde16815f">
   <rect height="232.4" width="514.4" x="50.8" y="10.8"/>
  </clipPath>
 </defs>
</svg>
