<?xml version="1.0" encoding="utf-8" standalone="no"?>
<!DOCTYPE svg PUBLIC "-//W3C//DTD SVG 1.1//EN"
  "http://www.w3.org/Graphics/SVG/1.1/DTD/svg11.dtd">
<svg height="288pt" version="1.1" viewBox="0 0 432 288" width="432pt" xmlns="http://www.w3.org/2000/svg" xmlns:xlink="http://www.w3.org/1999/xlink">
 <metadata>
  <rdf:RDF xmlns:cc="http://creativecommons.org/ns#" xmlns:dc="http://purl.org/dc/elements/1.1/" xmlns:rdf="http://www.w3.org/1999/02/22-rdf-syntax-ns#">
   <cc:Work>
    <dc:type rdf:resource="http://purl.org/dc/dcmitype/StillImage"/>
    <dc:date>2021-11-04T15:36:19.168197</dc:date>
    <dc:format>image/svg+xml</dc:format>
    <dc:creator>
     <cc:Agent>
      <dc:title>Matplotlib v3.4.3, https://matplotlib.org/</dc:title>
     </cc:Agent>
    </dc:creator>
   </cc:Work>
  </rdf:RDF>
 </metadata>
 <defs>
  <style type="text/css">*{stroke-linecap:butt;stroke-linejoin:round;}</style>
 </defs>
 <g id="figure_1">
  <g id="patch_1">
   <path d="M 0 288 
L 432 288 
L 432 0 
L 0 0 
z
" style="fill:#ffffff;"/>
  </g>
  <g id="axes_1">
   <g id="patch_2">
    <path d="M 54 252 
L 388.8 252 
L 388.8 34.56 
L 54 34.56 
z
" style="fill:#e5e5e5;"/>
   </g>
   <g id="matplotlib.axis_1">
    <g id="xtick_1">
     <g id="line2d_1">
      <path clip-path="url(#pf3dfc0a548)" d="M 66.143802 252 
L 66.143802 34.56 
" style="fill:none;stroke:#ffffff;stroke-linecap:square;stroke-width:0.8;"/>
     </g>
     <g id="line2d_2">
      <defs>
       <path d="M 0 0 
L 0 3.5 
" id="mccc9b8045d" style="stroke:#555555;stroke-width:0.8;"/>
      </defs>
      <g>
       <use style="fill:#555555;stroke:#555555;stroke-width:0.8;" x="66.143802" xlink:href="#mccc9b8045d" y="252"/>
      </g>
     </g>
     <g id="text_1">
      <!-- 0 -->
      <g style="fill:#555555;" transform="translate(62.962552 266.598437)scale(0.1 -0.1)">
       <defs>
        <path d="M 2034 4250 
Q 1547 4250 1301 3770 
Q 1056 3291 1056 2328 
Q 1056 1369 1301 889 
Q 1547 409 2034 409 
Q 2525 409 2770 889 
Q 3016 1369 3016 2328 
Q 3016 3291 2770 3770 
Q 2525 4250 2034 4250 
z
M 2034 4750 
Q 2819 4750 3233 4129 
Q 3647 3509 3647 2328 
Q 3647 1150 3233 529 
Q 2819 -91 2034 -91 
Q 1250 -91 836 529 
Q 422 1150 422 2328 
Q 422 3509 836 4129 
Q 1250 4750 2034 4750 
z
" id="DejaVuSans-30" transform="scale(0.015625)"/>
       </defs>
       <use xlink:href="#DejaVuSans-30"/>
      </g>
     </g>
    </g>
    <g id="xtick_2">
     <g id="line2d_3">
      <path clip-path="url(#pf3dfc0a548)" d="M 127.631405 252 
L 127.631405 34.56 
" style="fill:none;stroke:#ffffff;stroke-linecap:square;stroke-width:0.8;"/>
     </g>
     <g id="line2d_4">
      <g>
       <use style="fill:#555555;stroke:#555555;stroke-width:0.8;" x="127.631405" xlink:href="#mccc9b8045d" y="252"/>
      </g>
     </g>
     <g id="text_2">
      <!-- 20 -->
      <g style="fill:#555555;" transform="translate(121.268905 266.598437)scale(0.1 -0.1)">
       <defs>
        <path d="M 1228 531 
L 3431 531 
L 3431 0 
L 469 0 
L 469 531 
Q 828 903 1448 1529 
Q 2069 2156 2228 2338 
Q 2531 2678 2651 2914 
Q 2772 3150 2772 3378 
Q 2772 3750 2511 3984 
Q 2250 4219 1831 4219 
Q 1534 4219 1204 4116 
Q 875 4013 500 3803 
L 500 4441 
Q 881 4594 1212 4672 
Q 1544 4750 1819 4750 
Q 2544 4750 2975 4387 
Q 3406 4025 3406 3419 
Q 3406 3131 3298 2873 
Q 3191 2616 2906 2266 
Q 2828 2175 2409 1742 
Q 1991 1309 1228 531 
z
" id="DejaVuSans-32" transform="scale(0.015625)"/>
       </defs>
       <use xlink:href="#DejaVuSans-32"/>
       <use x="63.623047" xlink:href="#DejaVuSans-30"/>
      </g>
     </g>
    </g>
    <g id="xtick_3">
     <g id="line2d_5">
      <path clip-path="url(#pf3dfc0a548)" d="M 189.119008 252 
L 189.119008 34.56 
" style="fill:none;stroke:#ffffff;stroke-linecap:square;stroke-width:0.8;"/>
     </g>
     <g id="line2d_6">
      <g>
       <use style="fill:#555555;stroke:#555555;stroke-width:0.8;" x="189.119008" xlink:href="#mccc9b8045d" y="252"/>
      </g>
     </g>
     <g id="text_3">
      <!-- 40 -->
      <g style="fill:#555555;" transform="translate(182.756508 266.598437)scale(0.1 -0.1)">
       <defs>
        <path d="M 2419 4116 
L 825 1625 
L 2419 1625 
L 2419 4116 
z
M 2253 4666 
L 3047 4666 
L 3047 1625 
L 3713 1625 
L 3713 1100 
L 3047 1100 
L 3047 0 
L 2419 0 
L 2419 1100 
L 313 1100 
L 313 1709 
L 2253 4666 
z
" id="DejaVuSans-34" transform="scale(0.015625)"/>
       </defs>
       <use xlink:href="#DejaVuSans-34"/>
       <use x="63.623047" xlink:href="#DejaVuSans-30"/>
      </g>
     </g>
    </g>
    <g id="xtick_4">
     <g id="line2d_7">
      <path clip-path="url(#pf3dfc0a548)" d="M 250.606612 252 
L 250.606612 34.56 
" style="fill:none;stroke:#ffffff;stroke-linecap:square;stroke-width:0.8;"/>
     </g>
     <g id="line2d_8">
      <g>
       <use style="fill:#555555;stroke:#555555;stroke-width:0.8;" x="250.606612" xlink:href="#mccc9b8045d" y="252"/>
      </g>
     </g>
     <g id="text_4">
      <!-- 60 -->
      <g style="fill:#555555;" transform="translate(244.244112 266.598437)scale(0.1 -0.1)">
       <defs>
        <path d="M 2113 2584 
Q 1688 2584 1439 2293 
Q 1191 2003 1191 1497 
Q 1191 994 1439 701 
Q 1688 409 2113 409 
Q 2538 409 2786 701 
Q 3034 994 3034 1497 
Q 3034 2003 2786 2293 
Q 2538 2584 2113 2584 
z
M 3366 4563 
L 3366 3988 
Q 3128 4100 2886 4159 
Q 2644 4219 2406 4219 
Q 1781 4219 1451 3797 
Q 1122 3375 1075 2522 
Q 1259 2794 1537 2939 
Q 1816 3084 2150 3084 
Q 2853 3084 3261 2657 
Q 3669 2231 3669 1497 
Q 3669 778 3244 343 
Q 2819 -91 2113 -91 
Q 1303 -91 875 529 
Q 447 1150 447 2328 
Q 447 3434 972 4092 
Q 1497 4750 2381 4750 
Q 2619 4750 2861 4703 
Q 3103 4656 3366 4563 
z
" id="DejaVuSans-36" transform="scale(0.015625)"/>
       </defs>
       <use xlink:href="#DejaVuSans-36"/>
       <use x="63.623047" xlink:href="#DejaVuSans-30"/>
      </g>
     </g>
    </g>
    <g id="xtick_5">
     <g id="line2d_9">
      <path clip-path="url(#pf3dfc0a548)" d="M 312.094215 252 
L 312.094215 34.56 
" style="fill:none;stroke:#ffffff;stroke-linecap:square;stroke-width:0.8;"/>
     </g>
     <g id="line2d_10">
      <g>
       <use style="fill:#555555;stroke:#555555;stroke-width:0.8;" x="312.094215" xlink:href="#mccc9b8045d" y="252"/>
      </g>
     </g>
     <g id="text_5">
      <!-- 80 -->
      <g style="fill:#555555;" transform="translate(305.731715 266.598437)scale(0.1 -0.1)">
       <defs>
        <path d="M 2034 2216 
Q 1584 2216 1326 1975 
Q 1069 1734 1069 1313 
Q 1069 891 1326 650 
Q 1584 409 2034 409 
Q 2484 409 2743 651 
Q 3003 894 3003 1313 
Q 3003 1734 2745 1975 
Q 2488 2216 2034 2216 
z
M 1403 2484 
Q 997 2584 770 2862 
Q 544 3141 544 3541 
Q 544 4100 942 4425 
Q 1341 4750 2034 4750 
Q 2731 4750 3128 4425 
Q 3525 4100 3525 3541 
Q 3525 3141 3298 2862 
Q 3072 2584 2669 2484 
Q 3125 2378 3379 2068 
Q 3634 1759 3634 1313 
Q 3634 634 3220 271 
Q 2806 -91 2034 -91 
Q 1263 -91 848 271 
Q 434 634 434 1313 
Q 434 1759 690 2068 
Q 947 2378 1403 2484 
z
M 1172 3481 
Q 1172 3119 1398 2916 
Q 1625 2713 2034 2713 
Q 2441 2713 2670 2916 
Q 2900 3119 2900 3481 
Q 2900 3844 2670 4047 
Q 2441 4250 2034 4250 
Q 1625 4250 1398 4047 
Q 1172 3844 1172 3481 
z
" id="DejaVuSans-38" transform="scale(0.015625)"/>
       </defs>
       <use xlink:href="#DejaVuSans-38"/>
       <use x="63.623047" xlink:href="#DejaVuSans-30"/>
      </g>
     </g>
    </g>
    <g id="xtick_6">
     <g id="line2d_11">
      <path clip-path="url(#pf3dfc0a548)" d="M 373.581818 252 
L 373.581818 34.56 
" style="fill:none;stroke:#ffffff;stroke-linecap:square;stroke-width:0.8;"/>
     </g>
     <g id="line2d_12">
      <g>
       <use style="fill:#555555;stroke:#555555;stroke-width:0.8;" x="373.581818" xlink:href="#mccc9b8045d" y="252"/>
      </g>
     </g>
     <g id="text_6">
      <!-- 100 -->
      <g style="fill:#555555;" transform="translate(364.038068 266.598437)scale(0.1 -0.1)">
       <defs>
        <path d="M 794 531 
L 1825 531 
L 1825 4091 
L 703 3866 
L 703 4441 
L 1819 4666 
L 2450 4666 
L 2450 531 
L 3481 531 
L 3481 0 
L 794 0 
L 794 531 
z
" id="DejaVuSans-31" transform="scale(0.015625)"/>
       </defs>
       <use xlink:href="#DejaVuSans-31"/>
       <use x="63.623047" xlink:href="#DejaVuSans-30"/>
       <use x="127.246094" xlink:href="#DejaVuSans-30"/>
      </g>
     </g>
    </g>
    <g id="text_7">
     <!-- Epoch number -->
     <g style="fill:#555555;" transform="translate(177.703125 281.79625)scale(0.12 -0.12)">
      <defs>
       <path d="M 628 4666 
L 3578 4666 
L 3578 4134 
L 1259 4134 
L 1259 2753 
L 3481 2753 
L 3481 2222 
L 1259 2222 
L 1259 531 
L 3634 531 
L 3634 0 
L 628 0 
L 628 4666 
z
" id="DejaVuSans-45" transform="scale(0.015625)"/>
       <path d="M 1159 525 
L 1159 -1331 
L 581 -1331 
L 581 3500 
L 1159 3500 
L 1159 2969 
Q 1341 3281 1617 3432 
Q 1894 3584 2278 3584 
Q 2916 3584 3314 3078 
Q 3713 2572 3713 1747 
Q 3713 922 3314 415 
Q 2916 -91 2278 -91 
Q 1894 -91 1617 61 
Q 1341 213 1159 525 
z
M 3116 1747 
Q 3116 2381 2855 2742 
Q 2594 3103 2138 3103 
Q 1681 3103 1420 2742 
Q 1159 2381 1159 1747 
Q 1159 1113 1420 752 
Q 1681 391 2138 391 
Q 2594 391 2855 752 
Q 3116 1113 3116 1747 
z
" id="DejaVuSans-70" transform="scale(0.015625)"/>
       <path d="M 1959 3097 
Q 1497 3097 1228 2736 
Q 959 2375 959 1747 
Q 959 1119 1226 758 
Q 1494 397 1959 397 
Q 2419 397 2687 759 
Q 2956 1122 2956 1747 
Q 2956 2369 2687 2733 
Q 2419 3097 1959 3097 
z
M 1959 3584 
Q 2709 3584 3137 3096 
Q 3566 2609 3566 1747 
Q 3566 888 3137 398 
Q 2709 -91 1959 -91 
Q 1206 -91 779 398 
Q 353 888 353 1747 
Q 353 2609 779 3096 
Q 1206 3584 1959 3584 
z
" id="DejaVuSans-6f" transform="scale(0.015625)"/>
       <path d="M 3122 3366 
L 3122 2828 
Q 2878 2963 2633 3030 
Q 2388 3097 2138 3097 
Q 1578 3097 1268 2742 
Q 959 2388 959 1747 
Q 959 1106 1268 751 
Q 1578 397 2138 397 
Q 2388 397 2633 464 
Q 2878 531 3122 666 
L 3122 134 
Q 2881 22 2623 -34 
Q 2366 -91 2075 -91 
Q 1284 -91 818 406 
Q 353 903 353 1747 
Q 353 2603 823 3093 
Q 1294 3584 2113 3584 
Q 2378 3584 2631 3529 
Q 2884 3475 3122 3366 
z
" id="DejaVuSans-63" transform="scale(0.015625)"/>
       <path d="M 3513 2113 
L 3513 0 
L 2938 0 
L 2938 2094 
Q 2938 2591 2744 2837 
Q 2550 3084 2163 3084 
Q 1697 3084 1428 2787 
Q 1159 2491 1159 1978 
L 1159 0 
L 581 0 
L 581 4863 
L 1159 4863 
L 1159 2956 
Q 1366 3272 1645 3428 
Q 1925 3584 2291 3584 
Q 2894 3584 3203 3211 
Q 3513 2838 3513 2113 
z
" id="DejaVuSans-68" transform="scale(0.015625)"/>
       <path id="DejaVuSans-20" transform="scale(0.015625)"/>
       <path d="M 3513 2113 
L 3513 0 
L 2938 0 
L 2938 2094 
Q 2938 2591 2744 2837 
Q 2550 3084 2163 3084 
Q 1697 3084 1428 2787 
Q 1159 2491 1159 1978 
L 1159 0 
L 581 0 
L 581 3500 
L 1159 3500 
L 1159 2956 
Q 1366 3272 1645 3428 
Q 1925 3584 2291 3584 
Q 2894 3584 3203 3211 
Q 3513 2838 3513 2113 
z
" id="DejaVuSans-6e" transform="scale(0.015625)"/>
       <path d="M 544 1381 
L 544 3500 
L 1119 3500 
L 1119 1403 
Q 1119 906 1312 657 
Q 1506 409 1894 409 
Q 2359 409 2629 706 
Q 2900 1003 2900 1516 
L 2900 3500 
L 3475 3500 
L 3475 0 
L 2900 0 
L 2900 538 
Q 2691 219 2414 64 
Q 2138 -91 1772 -91 
Q 1169 -91 856 284 
Q 544 659 544 1381 
z
M 1991 3584 
L 1991 3584 
z
" id="DejaVuSans-75" transform="scale(0.015625)"/>
       <path d="M 3328 2828 
Q 3544 3216 3844 3400 
Q 4144 3584 4550 3584 
Q 5097 3584 5394 3201 
Q 5691 2819 5691 2113 
L 5691 0 
L 5113 0 
L 5113 2094 
Q 5113 2597 4934 2840 
Q 4756 3084 4391 3084 
Q 3944 3084 3684 2787 
Q 3425 2491 3425 1978 
L 3425 0 
L 2847 0 
L 2847 2094 
Q 2847 2600 2669 2842 
Q 2491 3084 2119 3084 
Q 1678 3084 1418 2786 
Q 1159 2488 1159 1978 
L 1159 0 
L 581 0 
L 581 3500 
L 1159 3500 
L 1159 2956 
Q 1356 3278 1631 3431 
Q 1906 3584 2284 3584 
Q 2666 3584 2933 3390 
Q 3200 3197 3328 2828 
z
" id="DejaVuSans-6d" transform="scale(0.015625)"/>
       <path d="M 3116 1747 
Q 3116 2381 2855 2742 
Q 2594 3103 2138 3103 
Q 1681 3103 1420 2742 
Q 1159 2381 1159 1747 
Q 1159 1113 1420 752 
Q 1681 391 2138 391 
Q 2594 391 2855 752 
Q 3116 1113 3116 1747 
z
M 1159 2969 
Q 1341 3281 1617 3432 
Q 1894 3584 2278 3584 
Q 2916 3584 3314 3078 
Q 3713 2572 3713 1747 
Q 3713 922 3314 415 
Q 2916 -91 2278 -91 
Q 1894 -91 1617 61 
Q 1341 213 1159 525 
L 1159 0 
L 581 0 
L 581 4863 
L 1159 4863 
L 1159 2969 
z
" id="DejaVuSans-62" transform="scale(0.015625)"/>
       <path d="M 3597 1894 
L 3597 1613 
L 953 1613 
Q 991 1019 1311 708 
Q 1631 397 2203 397 
Q 2534 397 2845 478 
Q 3156 559 3463 722 
L 3463 178 
Q 3153 47 2828 -22 
Q 2503 -91 2169 -91 
Q 1331 -91 842 396 
Q 353 884 353 1716 
Q 353 2575 817 3079 
Q 1281 3584 2069 3584 
Q 2775 3584 3186 3129 
Q 3597 2675 3597 1894 
z
M 3022 2063 
Q 3016 2534 2758 2815 
Q 2500 3097 2075 3097 
Q 1594 3097 1305 2825 
Q 1016 2553 972 2059 
L 3022 2063 
z
" id="DejaVuSans-65" transform="scale(0.015625)"/>
       <path d="M 2631 2963 
Q 2534 3019 2420 3045 
Q 2306 3072 2169 3072 
Q 1681 3072 1420 2755 
Q 1159 2438 1159 1844 
L 1159 0 
L 581 0 
L 581 3500 
L 1159 3500 
L 1159 2956 
Q 1341 3275 1631 3429 
Q 1922 3584 2338 3584 
Q 2397 3584 2469 3576 
Q 2541 3569 2628 3553 
L 2631 2963 
z
" id="DejaVuSans-72" transform="scale(0.015625)"/>
      </defs>
      <use xlink:href="#DejaVuSans-45"/>
      <use x="63.183594" xlink:href="#DejaVuSans-70"/>
      <use x="126.660156" xlink:href="#DejaVuSans-6f"/>
      <use x="187.841797" xlink:href="#DejaVuSans-63"/>
      <use x="242.822266" xlink:href="#DejaVuSans-68"/>
      <use x="306.201172" xlink:href="#DejaVuSans-20"/>
      <use x="337.988281" xlink:href="#DejaVuSans-6e"/>
      <use x="401.367188" xlink:href="#DejaVuSans-75"/>
      <use x="464.746094" xlink:href="#DejaVuSans-6d"/>
      <use x="562.158203" xlink:href="#DejaVuSans-62"/>
      <use x="625.634766" xlink:href="#DejaVuSans-65"/>
      <use x="687.158203" xlink:href="#DejaVuSans-72"/>
     </g>
    </g>
   </g>
   <g id="matplotlib.axis_2">
    <g id="ytick_1">
     <g id="line2d_13">
      <path clip-path="url(#pf3dfc0a548)" d="M 54 230.917262 
L 388.8 230.917262 
" style="fill:none;stroke:#ffffff;stroke-linecap:square;stroke-width:0.8;"/>
     </g>
     <g id="line2d_14">
      <defs>
       <path d="M 0 0 
L -3.5 0 
" id="m14977874d9" style="stroke:#555555;stroke-width:0.8;"/>
      </defs>
      <g>
       <use style="fill:#555555;stroke:#555555;stroke-width:0.8;" x="54" xlink:href="#m14977874d9" y="230.917262"/>
      </g>
     </g>
     <g id="text_8">
      <!-- 0.2 -->
      <g style="fill:#555555;" transform="translate(31.096875 234.716481)scale(0.1 -0.1)">
       <defs>
        <path d="M 684 794 
L 1344 794 
L 1344 0 
L 684 0 
L 684 794 
z
" id="DejaVuSans-2e" transform="scale(0.015625)"/>
       </defs>
       <use xlink:href="#DejaVuSans-30"/>
       <use x="63.623047" xlink:href="#DejaVuSans-2e"/>
       <use x="95.410156" xlink:href="#DejaVuSans-32"/>
      </g>
     </g>
    </g>
    <g id="ytick_2">
     <g id="line2d_15">
      <path clip-path="url(#pf3dfc0a548)" d="M 54 183.208184 
L 388.8 183.208184 
" style="fill:none;stroke:#ffffff;stroke-linecap:square;stroke-width:0.8;"/>
     </g>
     <g id="line2d_16">
      <g>
       <use style="fill:#555555;stroke:#555555;stroke-width:0.8;" x="54" xlink:href="#m14977874d9" y="183.208184"/>
      </g>
     </g>
     <g id="text_9">
      <!-- 0.4 -->
      <g style="fill:#555555;" transform="translate(31.096875 187.007402)scale(0.1 -0.1)">
       <use xlink:href="#DejaVuSans-30"/>
       <use x="63.623047" xlink:href="#DejaVuSans-2e"/>
       <use x="95.410156" xlink:href="#DejaVuSans-34"/>
      </g>
     </g>
    </g>
    <g id="ytick_3">
     <g id="line2d_17">
      <path clip-path="url(#pf3dfc0a548)" d="M 54 135.499105 
L 388.8 135.499105 
" style="fill:none;stroke:#ffffff;stroke-linecap:square;stroke-width:0.8;"/>
     </g>
     <g id="line2d_18">
      <g>
       <use style="fill:#555555;stroke:#555555;stroke-width:0.8;" x="54" xlink:href="#m14977874d9" y="135.499105"/>
      </g>
     </g>
     <g id="text_10">
      <!-- 0.6 -->
      <g style="fill:#555555;" transform="translate(31.096875 139.298324)scale(0.1 -0.1)">
       <use xlink:href="#DejaVuSans-30"/>
       <use x="63.623047" xlink:href="#DejaVuSans-2e"/>
       <use x="95.410156" xlink:href="#DejaVuSans-36"/>
      </g>
     </g>
    </g>
    <g id="ytick_4">
     <g id="line2d_19">
      <path clip-path="url(#pf3dfc0a548)" d="M 54 87.790027 
L 388.8 87.790027 
" style="fill:none;stroke:#ffffff;stroke-linecap:square;stroke-width:0.8;"/>
     </g>
     <g id="line2d_20">
      <g>
       <use style="fill:#555555;stroke:#555555;stroke-width:0.8;" x="54" xlink:href="#m14977874d9" y="87.790027"/>
      </g>
     </g>
     <g id="text_11">
      <!-- 0.8 -->
      <g style="fill:#555555;" transform="translate(31.096875 91.589246)scale(0.1 -0.1)">
       <use xlink:href="#DejaVuSans-30"/>
       <use x="63.623047" xlink:href="#DejaVuSans-2e"/>
       <use x="95.410156" xlink:href="#DejaVuSans-38"/>
      </g>
     </g>
    </g>
    <g id="ytick_5">
     <g id="line2d_21">
      <path clip-path="url(#pf3dfc0a548)" d="M 54 40.080949 
L 388.8 40.080949 
" style="fill:none;stroke:#ffffff;stroke-linecap:square;stroke-width:0.8;"/>
     </g>
     <g id="line2d_22">
      <g>
       <use style="fill:#555555;stroke:#555555;stroke-width:0.8;" x="54" xlink:href="#m14977874d9" y="40.080949"/>
      </g>
     </g>
     <g id="text_12">
      <!-- 1.0 -->
      <g style="fill:#555555;" transform="translate(31.096875 43.880168)scale(0.1 -0.1)">
       <use xlink:href="#DejaVuSans-31"/>
       <use x="63.623047" xlink:href="#DejaVuSans-2e"/>
       <use x="95.410156" xlink:href="#DejaVuSans-30"/>
      </g>
     </g>
    </g>
    <g id="text_13">
     <!-- Error -->
     <g style="fill:#555555;" transform="translate(24.60125 157.902187)rotate(-90)scale(0.12 -0.12)">
      <use xlink:href="#DejaVuSans-45"/>
      <use x="63.183594" xlink:href="#DejaVuSans-72"/>
      <use x="102.546875" xlink:href="#DejaVuSans-72"/>
      <use x="141.410156" xlink:href="#DejaVuSans-6f"/>
      <use x="202.591797" xlink:href="#DejaVuSans-72"/>
     </g>
    </g>
   </g>
   <g id="line2d_23">
    <path clip-path="url(#pf3dfc0a548)" d="M 69.218182 61.151927 
L 72.292562 110.724381 
L 75.366942 135.469788 
L 78.441322 146.948469 
L 81.515702 154.382101 
L 84.590083 165.470604 
L 87.664463 171.000574 
L 90.738843 176.467782 
L 93.813223 180.598917 
L 96.887603 183.025249 
L 99.961983 186.458131 
L 103.036364 188.804855 
L 106.110744 190.209953 
L 109.185124 193.047167 
L 112.259504 195.449021 
L 115.333884 198.126352 
L 118.408264 195.920188 
L 121.482645 199.626003 
L 124.557025 200.698579 
L 127.631405 201.855602 
L 130.705785 204.156436 
L 133.780165 203.701624 
L 136.854545 206.069677 
L 139.928926 207.373716 
L 143.003306 208.855378 
L 146.077686 208.827612 
L 149.152066 211.833642 
L 152.226446 211.560218 
L 155.300826 212.844325 
L 158.375207 214.031335 
L 161.449587 214.96302 
L 164.523967 214.242975 
L 167.598347 215.043522 
L 170.672727 215.403765 
L 173.747107 217.809144 
L 176.821488 219.130919 
L 179.895868 218.435041 
L 182.970248 220.015466 
L 186.044628 218.532023 
L 189.119008 220.328893 
L 192.193388 220.462476 
L 195.267769 223.501523 
L 198.342149 223.391195 
L 201.416529 223.761775 
L 204.490909 224.319116 
L 207.565289 224.179845 
L 210.639669 225.264606 
L 213.71405 222.850002 
L 216.78843 222.65752 
L 219.86281 226.086898 
L 222.93719 226.180029 
L 226.01157 226.037148 
L 229.08595 228.222048 
L 232.160331 227.598145 
L 235.234711 228.551133 
L 238.309091 229.645699 
L 241.383471 228.668062 
L 244.457851 229.611632 
L 247.532231 228.81643 
L 250.606612 230.552772 
L 253.680992 229.129344 
L 256.755372 229.770873 
L 259.829752 231.422123 
L 262.904132 231.702899 
L 265.978512 233.068996 
L 269.052893 230.4655 
L 272.127273 233.409426 
L 275.201653 233.778216 
L 278.276033 234.063495 
L 281.350413 231.848794 
L 284.424793 235.271203 
L 287.499174 235.730782 
L 290.573554 234.733169 
L 293.647934 234.960545 
L 296.722314 234.761538 
L 299.796694 234.93584 
L 302.871074 235.84605 
L 305.945455 235.920262 
L 309.019835 236.022639 
L 312.094215 236.444663 
L 315.168595 234.651074 
L 318.242975 236.081355 
L 321.317355 235.285293 
L 324.391736 237.380633 
L 327.466116 238.704842 
L 330.540496 237.49214 
L 333.614876 237.025137 
L 336.689256 238.601908 
L 339.763636 239.488176 
L 342.838017 238.863126 
L 345.912397 238.466125 
L 348.986777 239.45812 
L 352.061157 241.350433 
L 355.135537 240.725427 
L 358.209917 239.984194 
L 361.284298 242.116364 
L 364.358678 239.815257 
L 367.433058 240.958449 
L 370.507438 241.926184 
L 373.581818 241.225 
" style="fill:none;stroke:#e24a33;stroke-linecap:square;stroke-width:1.5;"/>
   </g>
   <g id="line2d_24">
    <path clip-path="url(#pf3dfc0a548)" d="M 69.218182 56.835739 
L 72.292562 102.712659 
L 75.366942 123.850904 
L 78.441322 133.192191 
L 81.515702 137.397876 
L 84.590083 146.389593 
L 87.664463 149.177156 
L 90.738843 152.479679 
L 93.813223 154.116542 
L 96.887603 153.212447 
L 99.961983 155.177768 
L 103.036364 155.780838 
L 106.110744 154.544867 
L 109.185124 154.344734 
L 112.259504 155.213181 
L 115.333884 155.491199 
L 118.408264 150.071743 
L 121.482645 152.301525 
L 124.557025 151.426726 
L 127.631405 149.232527 
L 130.705785 150.557273 
L 133.780165 146.744677 
L 136.854545 146.707194 
L 139.928926 147.964261 
L 143.003306 147.163198 
L 146.077686 144.900468 
L 149.152066 145.811456 
L 152.226446 145.01648 
L 155.300826 143.478002 
L 158.375207 142.99312 
L 161.449587 141.800979 
L 164.523967 139.90908 
L 167.598347 138.487736 
L 170.672727 136.623125 
L 173.747107 136.821417 
L 176.821488 136.962953 
L 179.895868 134.776747 
L 182.970248 134.125761 
L 186.044628 129.600928 
L 189.119008 131.53681 
L 192.193388 126.265686 
L 195.267769 129.710143 
L 198.342149 128.061532 
L 201.416529 126.975284 
L 204.490909 124.789507 
L 207.565289 122.90428 
L 210.639669 123.307686 
L 213.71405 117.099853 
L 216.78843 116.610704 
L 219.86281 118.335017 
L 222.93719 116.723155 
L 226.01157 114.081942 
L 229.08595 114.990835 
L 232.160331 110.58355 
L 235.234711 111.272297 
L 238.309091 111.773087 
L 241.383471 108.586353 
L 244.457851 106.74691 
L 247.532231 104.309803 
L 250.606612 106.479464 
L 253.680992 100.317963 
L 256.755372 100.907991 
L 259.829752 100.170337 
L 262.904132 95.971466 
L 265.978512 98.449085 
L 269.052893 91.035997 
L 272.127273 95.376007 
L 275.201653 92.355465 
L 278.276033 92.325611 
L 281.350413 85.612916 
L 284.424793 88.940685 
L 287.499174 88.721748 
L 290.573554 84.17021 
L 293.647934 84.350513 
L 296.722314 81.945066 
L 299.796694 80.550068 
L 302.871074 78.374663 
L 305.945455 78.513696 
L 309.019835 76.428406 
L 312.094215 75.881859 
L 315.168595 71.47864 
L 318.242975 70.837128 
L 321.317355 64.483962 
L 324.391736 68.885946 
L 327.466116 68.127602 
L 330.540496 65.222637 
L 333.614876 59.33699 
L 336.689256 58.318982 
L 339.763636 59.127365 
L 342.838017 58.651975 
L 345.912397 54.843529 
L 348.986777 53.58802 
L 352.061157 57.701534 
L 355.135537 50.834462 
L 358.209917 51.136279 
L 361.284298 53.522943 
L 364.358678 50.523726 
L 367.433058 46.275713 
L 370.507438 45.697944 
L 373.581818 44.443636 
" style="fill:none;stroke:#348abd;stroke-linecap:square;stroke-width:1.5;"/>
   </g>
   <g id="line2d_25">
    <path clip-path="url(#pf3dfc0a548)" d="M 69.218182 61.151927 
L 72.292562 110.724381 
L 75.366942 135.469788 
L 78.441322 146.948469 
L 81.515702 154.382101 
L 84.590083 165.470604 
L 87.664463 171.000574 
L 90.738843 176.467782 
L 93.813223 180.598917 
L 96.887603 183.025249 
L 99.961983 186.458131 
L 103.036364 188.804855 
L 106.110744 190.209953 
L 109.185124 193.047167 
L 112.259504 195.449021 
L 115.333884 198.126352 
L 118.408264 195.920188 
L 121.482645 199.626003 
L 124.557025 200.698579 
L 127.631405 201.855602 
L 130.705785 204.156436 
L 133.780165 203.701624 
L 136.854545 206.069677 
L 139.928926 207.373716 
L 143.003306 208.855378 
L 146.077686 208.827612 
L 149.152066 211.833642 
L 152.226446 211.560218 
L 155.300826 212.844325 
L 158.375207 214.031335 
L 161.449587 214.96302 
L 164.523967 214.242975 
L 167.598347 215.043522 
L 170.672727 215.403765 
L 173.747107 217.809144 
L 176.821488 219.130919 
L 179.895868 218.435041 
L 182.970248 220.015466 
L 186.044628 218.532023 
L 189.119008 220.328893 
L 192.193388 220.462476 
L 195.267769 223.501523 
L 198.342149 223.391195 
L 201.416529 223.761775 
L 204.490909 224.319116 
L 207.565289 224.179845 
L 210.639669 225.264606 
L 213.71405 222.850002 
L 216.78843 222.65752 
L 219.86281 226.086898 
L 222.93719 226.180029 
L 226.01157 226.037148 
L 229.08595 228.222048 
L 232.160331 227.598145 
L 235.234711 228.551133 
L 238.309091 229.645699 
L 241.383471 228.668062 
L 244.457851 229.611632 
L 247.532231 228.81643 
L 250.606612 230.552772 
L 253.680992 229.129344 
L 256.755372 229.770873 
L 259.829752 231.422123 
L 262.904132 231.702899 
L 265.978512 233.068996 
L 269.052893 230.4655 
L 272.127273 233.409426 
L 275.201653 233.778216 
L 278.276033 234.063495 
L 281.350413 231.848794 
L 284.424793 235.271203 
L 287.499174 235.730782 
L 290.573554 234.733169 
L 293.647934 234.960545 
L 296.722314 234.761538 
L 299.796694 234.93584 
L 302.871074 235.84605 
L 305.945455 235.920262 
L 309.019835 236.022639 
L 312.094215 236.444663 
L 315.168595 234.651074 
L 318.242975 236.081355 
L 321.317355 235.285293 
L 324.391736 237.380633 
L 327.466116 238.704842 
L 330.540496 237.49214 
L 333.614876 237.025137 
L 336.689256 238.601908 
L 339.763636 239.488176 
L 342.838017 238.863126 
L 345.912397 238.466125 
L 348.986777 239.45812 
L 352.061157 241.350433 
L 355.135537 240.725427 
L 358.209917 239.984194 
L 361.284298 242.116364 
L 364.358678 239.815257 
L 367.433058 240.958449 
L 370.507438 241.926184 
L 373.581818 241.225 
" style="fill:none;stroke:#988ed5;stroke-linecap:square;stroke-width:1.5;"/>
   </g>
   <g id="line2d_26">
    <path clip-path="url(#pf3dfc0a548)" d="M 69.218182 56.835739 
L 72.292562 102.712659 
L 75.366942 123.850904 
L 78.441322 133.192191 
L 81.515702 137.397876 
L 84.590083 146.389593 
L 87.664463 149.177156 
L 90.738843 152.479679 
L 93.813223 154.116542 
L 96.887603 153.212447 
L 99.961983 155.177768 
L 103.036364 155.780838 
L 106.110744 154.544867 
L 109.185124 154.344734 
L 112.259504 155.213181 
L 115.333884 155.491199 
L 118.408264 150.071743 
L 121.482645 152.301525 
L 124.557025 151.426726 
L 127.631405 149.232527 
L 130.705785 150.557273 
L 133.780165 146.744677 
L 136.854545 146.707194 
L 139.928926 147.964261 
L 143.003306 147.163198 
L 146.077686 144.900468 
L 149.152066 145.811456 
L 152.226446 145.01648 
L 155.300826 143.478002 
L 158.375207 142.99312 
L 161.449587 141.800979 
L 164.523967 139.90908 
L 167.598347 138.487736 
L 170.672727 136.623125 
L 173.747107 136.821417 
L 176.821488 136.962953 
L 179.895868 134.776747 
L 182.970248 134.125761 
L 186.044628 129.600928 
L 189.119008 131.53681 
L 192.193388 126.265686 
L 195.267769 129.710143 
L 198.342149 128.061532 
L 201.416529 126.975284 
L 204.490909 124.789507 
L 207.565289 122.90428 
L 210.639669 123.307686 
L 213.71405 117.099853 
L 216.78843 116.610704 
L 219.86281 118.335017 
L 222.93719 116.723155 
L 226.01157 114.081942 
L 229.08595 114.990835 
L 232.160331 110.58355 
L 235.234711 111.272297 
L 238.309091 111.773087 
L 241.383471 108.586353 
L 244.457851 106.74691 
L 247.532231 104.309803 
L 250.606612 106.479464 
L 253.680992 100.317963 
L 256.755372 100.907991 
L 259.829752 100.170337 
L 262.904132 95.971466 
L 265.978512 98.449085 
L 269.052893 91.035997 
L 272.127273 95.376007 
L 275.201653 92.355465 
L 278.276033 92.325611 
L 281.350413 85.612916 
L 284.424793 88.940685 
L 287.499174 88.721748 
L 290.573554 84.17021 
L 293.647934 84.350513 
L 296.722314 81.945066 
L 299.796694 80.550068 
L 302.871074 78.374663 
L 305.945455 78.513696 
L 309.019835 76.428406 
L 312.094215 75.881859 
L 315.168595 71.47864 
L 318.242975 70.837128 
L 321.317355 64.483962 
L 324.391736 68.885946 
L 327.466116 68.127602 
L 330.540496 65.222637 
L 333.614876 59.33699 
L 336.689256 58.318982 
L 339.763636 59.127365 
L 342.838017 58.651975 
L 345.912397 54.843529 
L 348.986777 53.58802 
L 352.061157 57.701534 
L 355.135537 50.834462 
L 358.209917 51.136279 
L 361.284298 53.522943 
L 364.358678 50.523726 
L 367.433058 46.275713 
L 370.507438 45.697944 
L 373.581818 44.443636 
" style="fill:none;stroke:#777777;stroke-linecap:square;stroke-width:1.5;"/>
   </g>
   <g id="line2d_27">
    <path clip-path="url(#pf3dfc0a548)" d="M 69.218182 61.151927 
L 72.292562 110.724381 
L 75.366942 135.469788 
L 78.441322 146.948469 
L 81.515702 154.382101 
L 84.590083 165.470604 
L 87.664463 171.000574 
L 90.738843 176.467782 
L 93.813223 180.598917 
L 96.887603 183.025249 
L 99.961983 186.458131 
L 103.036364 188.804855 
L 106.110744 190.209953 
L 109.185124 193.047167 
L 112.259504 195.449021 
L 115.333884 198.126352 
L 118.408264 195.920188 
L 121.482645 199.626003 
L 124.557025 200.698579 
L 127.631405 201.855602 
L 130.705785 204.156436 
L 133.780165 203.701624 
L 136.854545 206.069677 
L 139.928926 207.373716 
L 143.003306 208.855378 
L 146.077686 208.827612 
L 149.152066 211.833642 
L 152.226446 211.560218 
L 155.300826 212.844325 
L 158.375207 214.031335 
L 161.449587 214.96302 
L 164.523967 214.242975 
L 167.598347 215.043522 
L 170.672727 215.403765 
L 173.747107 217.809144 
L 176.821488 219.130919 
L 179.895868 218.435041 
L 182.970248 220.015466 
L 186.044628 218.532023 
L 189.119008 220.328893 
L 192.193388 220.462476 
L 195.267769 223.501523 
L 198.342149 223.391195 
L 201.416529 223.761775 
L 204.490909 224.319116 
L 207.565289 224.179845 
L 210.639669 225.264606 
L 213.71405 222.850002 
L 216.78843 222.65752 
L 219.86281 226.086898 
L 222.93719 226.180029 
L 226.01157 226.037148 
L 229.08595 228.222048 
L 232.160331 227.598145 
L 235.234711 228.551133 
L 238.309091 229.645699 
L 241.383471 228.668062 
L 244.457851 229.611632 
L 247.532231 228.81643 
L 250.606612 230.552772 
L 253.680992 229.129344 
L 256.755372 229.770873 
L 259.829752 231.422123 
L 262.904132 231.702899 
L 265.978512 233.068996 
L 269.052893 230.4655 
L 272.127273 233.409426 
L 275.201653 233.778216 
L 278.276033 234.063495 
L 281.350413 231.848794 
L 284.424793 235.271203 
L 287.499174 235.730782 
L 290.573554 234.733169 
L 293.647934 234.960545 
L 296.722314 234.761538 
L 299.796694 234.93584 
L 302.871074 235.84605 
L 305.945455 235.920262 
L 309.019835 236.022639 
L 312.094215 236.444663 
L 315.168595 234.651074 
L 318.242975 236.081355 
L 321.317355 235.285293 
L 324.391736 237.380633 
L 327.466116 238.704842 
L 330.540496 237.49214 
L 333.614876 237.025137 
L 336.689256 238.601908 
L 339.763636 239.488176 
L 342.838017 238.863126 
L 345.912397 238.466125 
L 348.986777 239.45812 
L 352.061157 241.350433 
L 355.135537 240.725427 
L 358.209917 239.984194 
L 361.284298 242.116364 
L 364.358678 239.815257 
L 367.433058 240.958449 
L 370.507438 241.926184 
L 373.581818 241.225 
" style="fill:none;stroke:#fbc15e;stroke-linecap:square;stroke-width:1.5;"/>
   </g>
   <g id="line2d_28">
    <path clip-path="url(#pf3dfc0a548)" d="M 69.218182 56.835739 
L 72.292562 102.712659 
L 75.366942 123.850904 
L 78.441322 133.192191 
L 81.515702 137.397876 
L 84.590083 146.389593 
L 87.664463 149.177156 
L 90.738843 152.479679 
L 93.813223 154.116542 
L 96.887603 153.212447 
L 99.961983 155.177768 
L 103.036364 155.780838 
L 106.110744 154.544867 
L 109.185124 154.344734 
L 112.259504 155.213181 
L 115.333884 155.491199 
L 118.408264 150.071743 
L 121.482645 152.301525 
L 124.557025 151.426726 
L 127.631405 149.232527 
L 130.705785 150.557273 
L 133.780165 146.744677 
L 136.854545 146.707194 
L 139.928926 147.964261 
L 143.003306 147.163198 
L 146.077686 144.900468 
L 149.152066 145.811456 
L 152.226446 145.01648 
L 155.300826 143.478002 
L 158.375207 142.99312 
L 161.449587 141.800979 
L 164.523967 139.90908 
L 167.598347 138.487736 
L 170.672727 136.623125 
L 173.747107 136.821417 
L 176.821488 136.962953 
L 179.895868 134.776747 
L 182.970248 134.125761 
L 186.044628 129.600928 
L 189.119008 131.53681 
L 192.193388 126.265686 
L 195.267769 129.710143 
L 198.342149 128.061532 
L 201.416529 126.975284 
L 204.490909 124.789507 
L 207.565289 122.90428 
L 210.639669 123.307686 
L 213.71405 117.099853 
L 216.78843 116.610704 
L 219.86281 118.335017 
L 222.93719 116.723155 
L 226.01157 114.081942 
L 229.08595 114.990835 
L 232.160331 110.58355 
L 235.234711 111.272297 
L 238.309091 111.773087 
L 241.383471 108.586353 
L 244.457851 106.74691 
L 247.532231 104.309803 
L 250.606612 106.479464 
L 253.680992 100.317963 
L 256.755372 100.907991 
L 259.829752 100.170337 
L 262.904132 95.971466 
L 265.978512 98.449085 
L 269.052893 91.035997 
L 272.127273 95.376007 
L 275.201653 92.355465 
L 278.276033 92.325611 
L 281.350413 85.612916 
L 284.424793 88.940685 
L 287.499174 88.721748 
L 290.573554 84.17021 
L 293.647934 84.350513 
L 296.722314 81.945066 
L 299.796694 80.550068 
L 302.871074 78.374663 
L 305.945455 78.513696 
L 309.019835 76.428406 
L 312.094215 75.881859 
L 315.168595 71.47864 
L 318.242975 70.837128 
L 321.317355 64.483962 
L 324.391736 68.885946 
L 327.466116 68.127602 
L 330.540496 65.222637 
L 333.614876 59.33699 
L 336.689256 58.318982 
L 339.763636 59.127365 
L 342.838017 58.651975 
L 345.912397 54.843529 
L 348.986777 53.58802 
L 352.061157 57.701534 
L 355.135537 50.834462 
L 358.209917 51.136279 
L 361.284298 53.522943 
L 364.358678 50.523726 
L 367.433058 46.275713 
L 370.507438 45.697944 
L 373.581818 44.443636 
" style="fill:none;stroke:#8eba42;stroke-linecap:square;stroke-width:1.5;"/>
   </g>
   <g id="patch_3">
    <path d="M 54 252 
L 54 34.56 
" style="fill:none;stroke:#ffffff;stroke-linecap:square;stroke-linejoin:miter;"/>
   </g>
   <g id="patch_4">
    <path d="M 388.8 252 
L 388.8 34.56 
" style="fill:none;stroke:#ffffff;stroke-linecap:square;stroke-linejoin:miter;"/>
   </g>
   <g id="patch_5">
    <path d="M 54 252 
L 388.8 252 
" style="fill:none;stroke:#ffffff;stroke-linecap:square;stroke-linejoin:miter;"/>
   </g>
   <g id="patch_6">
    <path d="M 54 34.56 
L 388.8 34.56 
" style="fill:none;stroke:#ffffff;stroke-linecap:square;stroke-linejoin:miter;"/>
   </g>
   <g id="legend_1">
    <g id="patch_7">
     <path d="M 271.575 188.814375 
L 381.8 188.814375 
Q 383.8 188.814375 383.8 186.814375 
L 383.8 99.745625 
Q 383.8 97.745625 381.8 97.745625 
L 271.575 97.745625 
Q 269.575 97.745625 269.575 99.745625 
L 269.575 186.814375 
Q 269.575 188.814375 271.575 188.814375 
z
" style="fill:#e5e5e5;opacity:0.8;stroke:#cccccc;stroke-linejoin:miter;stroke-width:0.5;"/>
    </g>
    <g id="line2d_29">
     <path d="M 273.575 105.844063 
L 293.575 105.844063 
" style="fill:none;stroke:#e24a33;stroke-linecap:square;stroke-width:1.5;"/>
    </g>
    <g id="line2d_30"/>
    <g id="text_14">
     <!-- error 32(train) -->
     <g transform="translate(301.575 109.344063)scale(0.1 -0.1)">
      <defs>
       <path d="M 2597 2516 
Q 3050 2419 3304 2112 
Q 3559 1806 3559 1356 
Q 3559 666 3084 287 
Q 2609 -91 1734 -91 
Q 1441 -91 1130 -33 
Q 819 25 488 141 
L 488 750 
Q 750 597 1062 519 
Q 1375 441 1716 441 
Q 2309 441 2620 675 
Q 2931 909 2931 1356 
Q 2931 1769 2642 2001 
Q 2353 2234 1838 2234 
L 1294 2234 
L 1294 2753 
L 1863 2753 
Q 2328 2753 2575 2939 
Q 2822 3125 2822 3475 
Q 2822 3834 2567 4026 
Q 2313 4219 1838 4219 
Q 1578 4219 1281 4162 
Q 984 4106 628 3988 
L 628 4550 
Q 988 4650 1302 4700 
Q 1616 4750 1894 4750 
Q 2613 4750 3031 4423 
Q 3450 4097 3450 3541 
Q 3450 3153 3228 2886 
Q 3006 2619 2597 2516 
z
" id="DejaVuSans-33" transform="scale(0.015625)"/>
       <path d="M 1984 4856 
Q 1566 4138 1362 3434 
Q 1159 2731 1159 2009 
Q 1159 1288 1364 580 
Q 1569 -128 1984 -844 
L 1484 -844 
Q 1016 -109 783 600 
Q 550 1309 550 2009 
Q 550 2706 781 3412 
Q 1013 4119 1484 4856 
L 1984 4856 
z
" id="DejaVuSans-28" transform="scale(0.015625)"/>
       <path d="M 1172 4494 
L 1172 3500 
L 2356 3500 
L 2356 3053 
L 1172 3053 
L 1172 1153 
Q 1172 725 1289 603 
Q 1406 481 1766 481 
L 2356 481 
L 2356 0 
L 1766 0 
Q 1100 0 847 248 
Q 594 497 594 1153 
L 594 3053 
L 172 3053 
L 172 3500 
L 594 3500 
L 594 4494 
L 1172 4494 
z
" id="DejaVuSans-74" transform="scale(0.015625)"/>
       <path d="M 2194 1759 
Q 1497 1759 1228 1600 
Q 959 1441 959 1056 
Q 959 750 1161 570 
Q 1363 391 1709 391 
Q 2188 391 2477 730 
Q 2766 1069 2766 1631 
L 2766 1759 
L 2194 1759 
z
M 3341 1997 
L 3341 0 
L 2766 0 
L 2766 531 
Q 2569 213 2275 61 
Q 1981 -91 1556 -91 
Q 1019 -91 701 211 
Q 384 513 384 1019 
Q 384 1609 779 1909 
Q 1175 2209 1959 2209 
L 2766 2209 
L 2766 2266 
Q 2766 2663 2505 2880 
Q 2244 3097 1772 3097 
Q 1472 3097 1187 3025 
Q 903 2953 641 2809 
L 641 3341 
Q 956 3463 1253 3523 
Q 1550 3584 1831 3584 
Q 2591 3584 2966 3190 
Q 3341 2797 3341 1997 
z
" id="DejaVuSans-61" transform="scale(0.015625)"/>
       <path d="M 603 3500 
L 1178 3500 
L 1178 0 
L 603 0 
L 603 3500 
z
M 603 4863 
L 1178 4863 
L 1178 4134 
L 603 4134 
L 603 4863 
z
" id="DejaVuSans-69" transform="scale(0.015625)"/>
       <path d="M 513 4856 
L 1013 4856 
Q 1481 4119 1714 3412 
Q 1947 2706 1947 2009 
Q 1947 1309 1714 600 
Q 1481 -109 1013 -844 
L 513 -844 
Q 928 -128 1133 580 
Q 1338 1288 1338 2009 
Q 1338 2731 1133 3434 
Q 928 4138 513 4856 
z
" id="DejaVuSans-29" transform="scale(0.015625)"/>
      </defs>
      <use xlink:href="#DejaVuSans-65"/>
      <use x="61.523438" xlink:href="#DejaVuSans-72"/>
      <use x="100.886719" xlink:href="#DejaVuSans-72"/>
      <use x="139.75" xlink:href="#DejaVuSans-6f"/>
      <use x="200.931641" xlink:href="#DejaVuSans-72"/>
      <use x="242.044922" xlink:href="#DejaVuSans-20"/>
      <use x="273.832031" xlink:href="#DejaVuSans-33"/>
      <use x="337.455078" xlink:href="#DejaVuSans-32"/>
      <use x="401.078125" xlink:href="#DejaVuSans-28"/>
      <use x="440.091797" xlink:href="#DejaVuSans-74"/>
      <use x="479.300781" xlink:href="#DejaVuSans-72"/>
      <use x="520.414062" xlink:href="#DejaVuSans-61"/>
      <use x="581.693359" xlink:href="#DejaVuSans-69"/>
      <use x="609.476562" xlink:href="#DejaVuSans-6e"/>
      <use x="672.855469" xlink:href="#DejaVuSans-29"/>
     </g>
    </g>
    <g id="line2d_31">
     <path d="M 273.575 120.522188 
L 293.575 120.522188 
" style="fill:none;stroke:#348abd;stroke-linecap:square;stroke-width:1.5;"/>
    </g>
    <g id="line2d_32"/>
    <g id="text_15">
     <!-- error 32(valid) -->
     <g transform="translate(301.575 124.022188)scale(0.1 -0.1)">
      <defs>
       <path d="M 191 3500 
L 800 3500 
L 1894 563 
L 2988 3500 
L 3597 3500 
L 2284 0 
L 1503 0 
L 191 3500 
z
" id="DejaVuSans-76" transform="scale(0.015625)"/>
       <path d="M 603 4863 
L 1178 4863 
L 1178 0 
L 603 0 
L 603 4863 
z
" id="DejaVuSans-6c" transform="scale(0.015625)"/>
       <path d="M 2906 2969 
L 2906 4863 
L 3481 4863 
L 3481 0 
L 2906 0 
L 2906 525 
Q 2725 213 2448 61 
Q 2172 -91 1784 -91 
Q 1150 -91 751 415 
Q 353 922 353 1747 
Q 353 2572 751 3078 
Q 1150 3584 1784 3584 
Q 2172 3584 2448 3432 
Q 2725 3281 2906 2969 
z
M 947 1747 
Q 947 1113 1208 752 
Q 1469 391 1925 391 
Q 2381 391 2643 752 
Q 2906 1113 2906 1747 
Q 2906 2381 2643 2742 
Q 2381 3103 1925 3103 
Q 1469 3103 1208 2742 
Q 947 2381 947 1747 
z
" id="DejaVuSans-64" transform="scale(0.015625)"/>
      </defs>
      <use xlink:href="#DejaVuSans-65"/>
      <use x="61.523438" xlink:href="#DejaVuSans-72"/>
      <use x="100.886719" xlink:href="#DejaVuSans-72"/>
      <use x="139.75" xlink:href="#DejaVuSans-6f"/>
      <use x="200.931641" xlink:href="#DejaVuSans-72"/>
      <use x="242.044922" xlink:href="#DejaVuSans-20"/>
      <use x="273.832031" xlink:href="#DejaVuSans-33"/>
      <use x="337.455078" xlink:href="#DejaVuSans-32"/>
      <use x="401.078125" xlink:href="#DejaVuSans-28"/>
      <use x="440.091797" xlink:href="#DejaVuSans-76"/>
      <use x="499.271484" xlink:href="#DejaVuSans-61"/>
      <use x="560.550781" xlink:href="#DejaVuSans-6c"/>
      <use x="588.333984" xlink:href="#DejaVuSans-69"/>
      <use x="616.117188" xlink:href="#DejaVuSans-64"/>
      <use x="679.59375" xlink:href="#DejaVuSans-29"/>
     </g>
    </g>
    <g id="line2d_33">
     <path d="M 273.575 135.200312 
L 293.575 135.200312 
" style="fill:none;stroke:#988ed5;stroke-linecap:square;stroke-width:1.5;"/>
    </g>
    <g id="line2d_34"/>
    <g id="text_16">
     <!-- error 64(train) -->
     <g transform="translate(301.575 138.700312)scale(0.1 -0.1)">
      <use xlink:href="#DejaVuSans-65"/>
      <use x="61.523438" xlink:href="#DejaVuSans-72"/>
      <use x="100.886719" xlink:href="#DejaVuSans-72"/>
      <use x="139.75" xlink:href="#DejaVuSans-6f"/>
      <use x="200.931641" xlink:href="#DejaVuSans-72"/>
      <use x="242.044922" xlink:href="#DejaVuSans-20"/>
      <use x="273.832031" xlink:href="#DejaVuSans-36"/>
      <use x="337.455078" xlink:href="#DejaVuSans-34"/>
      <use x="401.078125" xlink:href="#DejaVuSans-28"/>
      <use x="440.091797" xlink:href="#DejaVuSans-74"/>
      <use x="479.300781" xlink:href="#DejaVuSans-72"/>
      <use x="520.414062" xlink:href="#DejaVuSans-61"/>
      <use x="581.693359" xlink:href="#DejaVuSans-69"/>
      <use x="609.476562" xlink:href="#DejaVuSans-6e"/>
      <use x="672.855469" xlink:href="#DejaVuSans-29"/>
     </g>
    </g>
    <g id="line2d_35">
     <path d="M 273.575 149.878438 
L 293.575 149.878438 
" style="fill:none;stroke:#777777;stroke-linecap:square;stroke-width:1.5;"/>
    </g>
    <g id="line2d_36"/>
    <g id="text_17">
     <!-- error 64(valid) -->
     <g transform="translate(301.575 153.378438)scale(0.1 -0.1)">
      <use xlink:href="#DejaVuSans-65"/>
      <use x="61.523438" xlink:href="#DejaVuSans-72"/>
      <use x="100.886719" xlink:href="#DejaVuSans-72"/>
      <use x="139.75" xlink:href="#DejaVuSans-6f"/>
      <use x="200.931641" xlink:href="#DejaVuSans-72"/>
      <use x="242.044922" xlink:href="#DejaVuSans-20"/>
      <use x="273.832031" xlink:href="#DejaVuSans-36"/>
      <use x="337.455078" xlink:href="#DejaVuSans-34"/>
      <use x="401.078125" xlink:href="#DejaVuSans-28"/>
      <use x="440.091797" xlink:href="#DejaVuSans-76"/>
      <use x="499.271484" xlink:href="#DejaVuSans-61"/>
      <use x="560.550781" xlink:href="#DejaVuSans-6c"/>
      <use x="588.333984" xlink:href="#DejaVuSans-69"/>
      <use x="616.117188" xlink:href="#DejaVuSans-64"/>
      <use x="679.59375" xlink:href="#DejaVuSans-29"/>
     </g>
    </g>
    <g id="line2d_37">
     <path d="M 273.575 164.556563 
L 293.575 164.556563 
" style="fill:none;stroke:#fbc15e;stroke-linecap:square;stroke-width:1.5;"/>
    </g>
    <g id="line2d_38"/>
    <g id="text_18">
     <!-- error 128(train) -->
     <g transform="translate(301.575 168.056563)scale(0.1 -0.1)">
      <use xlink:href="#DejaVuSans-65"/>
      <use x="61.523438" xlink:href="#DejaVuSans-72"/>
      <use x="100.886719" xlink:href="#DejaVuSans-72"/>
      <use x="139.75" xlink:href="#DejaVuSans-6f"/>
      <use x="200.931641" xlink:href="#DejaVuSans-72"/>
      <use x="242.044922" xlink:href="#DejaVuSans-20"/>
      <use x="273.832031" xlink:href="#DejaVuSans-31"/>
      <use x="337.455078" xlink:href="#DejaVuSans-32"/>
      <use x="401.078125" xlink:href="#DejaVuSans-38"/>
      <use x="464.701172" xlink:href="#DejaVuSans-28"/>
      <use x="503.714844" xlink:href="#DejaVuSans-74"/>
      <use x="542.923828" xlink:href="#DejaVuSans-72"/>
      <use x="584.037109" xlink:href="#DejaVuSans-61"/>
      <use x="645.316406" xlink:href="#DejaVuSans-69"/>
      <use x="673.099609" xlink:href="#DejaVuSans-6e"/>
      <use x="736.478516" xlink:href="#DejaVuSans-29"/>
     </g>
    </g>
    <g id="line2d_39">
     <path d="M 273.575 179.234688 
L 293.575 179.234688 
" style="fill:none;stroke:#8eba42;stroke-linecap:square;stroke-width:1.5;"/>
    </g>
    <g id="line2d_40"/>
    <g id="text_19">
     <!-- error 128(valid) -->
     <g transform="translate(301.575 182.734688)scale(0.1 -0.1)">
      <use xlink:href="#DejaVuSans-65"/>
      <use x="61.523438" xlink:href="#DejaVuSans-72"/>
      <use x="100.886719" xlink:href="#DejaVuSans-72"/>
      <use x="139.75" xlink:href="#DejaVuSans-6f"/>
      <use x="200.931641" xlink:href="#DejaVuSans-72"/>
      <use x="242.044922" xlink:href="#DejaVuSans-20"/>
      <use x="273.832031" xlink:href="#DejaVuSans-31"/>
      <use x="337.455078" xlink:href="#DejaVuSans-32"/>
      <use x="401.078125" xlink:href="#DejaVuSans-38"/>
      <use x="464.701172" xlink:href="#DejaVuSans-28"/>
      <use x="503.714844" xlink:href="#DejaVuSans-76"/>
      <use x="562.894531" xlink:href="#DejaVuSans-61"/>
      <use x="624.173828" xlink:href="#DejaVuSans-6c"/>
      <use x="651.957031" xlink:href="#DejaVuSans-69"/>
      <use x="679.740234" xlink:href="#DejaVuSans-64"/>
      <use x="743.216797" xlink:href="#DejaVuSans-29"/>
     </g>
    </g>
   </g>
  </g>
 </g>
 <defs>
  <clipPath id="pf3dfc0a548">
   <rect height="217.44" width="334.8" x="54" y="34.56"/>
  </clipPath>
 </defs>
</svg>
